<svg width="296" height="224" viewBox="0 0 296 224" fill="none" xmlns="http://www.w3.org/2000/svg">
<g clip-path="url(#clip0)">
<path d="M296 202.256H0.0731812V224H296V202.256Z" fill="#E6E6E6"/>
<path d="M295.59 202.274H0V201.547H295.722L295.59 202.274Z" fill="#3F3D56"/>
<path d="M232.166 83.698V148.068H63.9073V83.698C63.9071 62.3362 72.1168 41.7827 86.8548 26.2476C101.593 10.7124 121.744 1.37147 143.18 0.138038C144.786 0.0448641 146.405 -0.00115157 148.037 -9.78351e-06C148.966 -9.78351e-06 149.893 0.0137872 150.812 0.0483042C172.158 0.720339 192.442 9.47151 207.524 24.5157C207.978 24.9679 208.426 25.4235 208.873 25.886C223.828 41.4552 232.171 62.1628 232.166 83.698V83.698Z" fill="#E6E6E6"/>
<path d="M150.812 0.0483194V148.068H143.18V0.138038C144.786 0.0448641 146.405 -0.00115157 148.037 -9.78351e-06C148.966 -9.78351e-06 149.893 0.0137891 150.812 0.0483194Z" fill="white"/>
<path d="M215.344 33.4792H80.7297C82.7336 30.823 84.8941 28.2875 87.1999 25.886H208.873C211.179 28.2875 213.34 30.823 215.344 33.4792V33.4792Z" fill="white"/>
<path d="M219.361 55.2234H159.728V155.661H219.361V55.2234Z" fill="white"/>
<path d="M180.524 72.1914H171.503V81.1654H180.524V72.1914Z" fill="#E6E6E6"/>
<path d="M195.056 72.1914H186.036V81.1654H195.056V72.1914Z" fill="#E6E6E6"/>
<path d="M209.589 72.1914H200.568V81.1654H209.589V72.1914Z" fill="#E6E6E6"/>
<path d="M180.774 92.6322H171.754V101.606H180.774V92.6322Z" fill="#E6E6E6"/>
<path d="M195.307 92.6322H186.286V101.606H195.307V92.6322Z" fill="#E6E6E6"/>
<path d="M209.839 92.6322H200.819V101.606H209.839V92.6322Z" fill="#E6E6E6"/>
<path d="M181.025 113.073H172.004V122.047H181.025V113.073Z" fill="#E6E6E6"/>
<path d="M195.557 113.073H186.537V122.047H195.557V113.073Z" fill="#E6E6E6"/>
<path d="M210.09 113.073H201.07V122.047H210.09V113.073Z" fill="#E6E6E6"/>
<path d="M181.275 133.514H172.255V142.488H181.275V133.514Z" fill="#E6E6E6"/>
<path d="M195.808 133.514H186.788V142.488H195.808V133.514Z" fill="#E6E6E6"/>
<path d="M210.34 133.514H201.32V142.488H210.34V133.514Z" fill="#E6E6E6"/>
<path d="M181.275 133.514H172.255V142.488H181.275V133.514Z" fill="#E6E6E6"/>
<path d="M195.808 133.514H186.788V142.488H195.808V133.514Z" fill="#E6E6E6"/>
<path d="M210.34 133.514H201.32V142.488H210.34V133.514Z" fill="#E6E6E6"/>
<path d="M83.908 127.645C90.7741 127.645 96.3401 122.108 96.3401 115.277C96.3401 108.446 90.7741 102.909 83.908 102.909C77.0419 102.909 71.4758 108.446 71.4758 115.277C71.4758 122.108 77.0419 127.645 83.908 127.645Z" fill="white"/>
<path d="M83.9421 115.277H83.9763L84.5912 150.344H83.2934L83.9421 115.277Z" fill="white"/>
<path d="M86.2058 134.378L85.9194 133.836L83.8644 134.913L84.1508 135.454L86.2058 134.378Z" fill="white"/>
<path d="M120.458 115.827C130.899 115.827 139.363 107.406 139.363 97.0187C139.363 86.6312 130.899 78.2104 120.458 78.2104C110.017 78.2104 101.553 86.6312 101.553 97.0187C101.553 107.406 110.017 115.827 120.458 115.827Z" fill="white"/>
<path d="M120.51 97.0187H120.562L121.497 150.344H119.523L120.51 97.0187Z" fill="white"/>
<path d="M123.952 126.064L123.517 125.241L120.392 126.878L120.827 127.701L123.952 126.064Z" fill="white"/>
<path d="M81.4653 79.0591L84.659 76.5178C82.1779 76.2455 81.1585 77.5916 80.7413 78.6571C78.803 77.8564 76.693 78.9058 76.693 78.9058L83.083 81.2137C82.7606 80.3571 82.1994 79.6097 81.4653 79.0591V79.0591Z" fill="white"/>
<path d="M115.117 58.3503L118.311 55.809C115.83 55.5367 114.81 56.8829 114.393 57.9484C112.455 57.1476 110.345 58.197 110.345 58.197L116.735 60.5049C116.412 59.6483 115.851 58.9009 115.117 58.3503V58.3503Z" fill="white"/>
<path d="M102.281 78.0236L105.474 75.4824C102.993 75.21 101.974 76.5562 101.557 77.6217C99.6185 76.821 97.5085 77.8704 97.5085 77.8704L103.898 80.1783C103.576 79.3217 103.015 78.5742 102.281 78.0236V78.0236Z" fill="white"/>
<path d="M241.012 140.475H55.0607V155.661H241.012V140.475Z" fill="#E6E6E6"/>
<path d="M27.2873 180.006C27.2873 180.006 -10.3267 162.779 2.88703 150.833C16.1008 138.887 27.2873 180.006 27.2873 180.006Z" fill="#E6E6E6"/>
<path d="M26.6326 184.026C26.6326 184.026 9.34381 127.511 34.8022 130.214C60.2606 132.917 26.6326 184.026 26.6326 184.026Z" fill="#E6E6E6"/>
<path d="M14.0272 179.013L14.7528 188.467L14.7643 188.63C14.7636 190.107 14.8386 191.582 14.9889 193.051C15.9737 202.693 20.2066 207.088 25.1535 207.088C30.1005 207.088 34.1491 202.693 35.1339 193.051C35.2842 191.582 35.3592 190.107 35.3585 188.63L35.3642 188.499L35.3671 188.467L36.0956 179.013H14.0272Z" fill="#E6E6E6"/>
<path d="M35.3671 188.467L35.3642 188.499L35.3585 188.63C35.3592 190.107 35.2842 191.582 35.1339 193.051H14.9889C14.8386 191.582 14.7636 190.107 14.7643 188.63L14.7528 188.467H35.3671Z" fill="white"/>
<path d="M278.957 180.006C278.957 180.006 241.343 162.779 254.557 150.833C267.771 138.887 278.957 180.006 278.957 180.006Z" fill="#E6E6E6"/>
<path d="M278.303 184.026C278.303 184.026 261.014 127.511 286.472 130.214C311.931 132.917 278.303 184.026 278.303 184.026Z" fill="#E6E6E6"/>
<path d="M265.697 179.013L266.423 188.467L266.434 188.63C266.434 190.107 266.509 191.582 266.659 193.051C267.644 202.693 271.877 207.088 276.824 207.088C281.77 207.088 285.819 202.693 286.804 193.051C286.954 191.582 287.029 190.107 287.028 188.63L287.034 188.499L287.037 188.467L287.766 179.013H265.697Z" fill="#E6E6E6"/>
<path d="M287.037 188.467L287.034 188.499L287.028 188.63C287.029 190.107 286.954 191.582 286.804 193.051H266.659C266.509 191.582 266.434 190.107 266.434 188.63L266.423 188.467H287.037Z" fill="white"/>
<path d="M229.015 214.23L226.549 214.518C224.601 215.686 222.315 216.126 219.783 216.037C219.43 216.026 219.085 215.924 218.784 215.74C218.482 215.556 218.234 215.297 218.064 214.989V214.989C217.917 214.718 217.834 214.417 217.823 214.109C217.811 213.802 217.872 213.496 217.998 213.215C218.125 212.934 218.316 212.686 218.555 212.491C218.794 212.295 219.075 212.157 219.376 212.087L221.25 211.653L225.771 207.254L228.499 202.342L232.461 202.794L233.286 209.033C233.391 210.281 233.004 211.521 232.207 212.49C231.41 213.46 230.266 214.084 229.015 214.23V214.23Z" fill="#FFB8B8"/>
<path d="M190.608 211.074L188.191 211.639C186.39 213.021 184.169 213.717 181.643 213.915C181.291 213.945 180.937 213.882 180.616 213.734C180.295 213.585 180.019 213.356 179.815 213.069V213.069C179.638 212.817 179.521 212.527 179.475 212.223C179.428 211.919 179.453 211.608 179.547 211.314C179.641 211.021 179.802 210.753 180.017 210.532C180.232 210.31 180.495 210.141 180.786 210.038L182.598 209.394L186.586 204.511L188.734 199.322H192.722L194.256 205.426C194.503 206.654 194.26 207.93 193.58 208.984C192.899 210.037 191.834 210.787 190.608 211.074Z" fill="#FFB8B8"/>
<path d="M188.627 199.667L193.137 200.357L200.249 164.635L212.565 143.753L227.482 204.499L233.033 205.535C232.411 171.326 235.449 128.26 228.523 123.045L198.341 126.496L185.158 161.701L188.627 199.667Z" fill="#2F2E41"/>
<path d="M210.483 69.8922C216.231 69.8922 220.891 65.2563 220.891 59.5378C220.891 53.8192 216.231 49.1834 210.483 49.1834C204.735 49.1834 200.075 53.8192 200.075 59.5378C200.075 65.2563 204.735 69.8922 210.483 69.8922Z" fill="#FFB8B8"/>
<path d="M225.054 75.4145L212.564 77.4854L209.442 66.4406L218.462 63.6796L225.054 75.4145Z" fill="#FFB8B8"/>
<path d="M230.258 124.425L196.953 127.532C199.623 118.295 202.069 109.091 200.075 99.9199C197.543 91.7325 199.987 86.8636 206.667 83.0077L211.177 72.9985L223.319 71.6179C226.535 76.7614 227.85 82.8582 227.039 88.8614C225.309 101.916 225.777 114.03 230.258 124.425Z" fill="#FF637C"/>
<path d="M210.249 47.3087C206.775 48.0982 202.822 49.2168 202.6 50.2566C199.027 51.1523 196.33 53.298 195.779 56.5691C195.733 56.8518 195.75 57.1411 195.829 57.4167C195.907 57.6922 196.046 57.9472 196.234 58.1638C196.422 58.3804 196.656 58.5533 196.919 58.6703C197.182 58.7873 197.467 58.8455 197.755 58.8409C199.698 58.816 202.615 58.6309 204.541 57.8305C210.137 61.4174 211.076 70.7466 208.632 77.0968L212.478 76.7462L216.456 65.16L217.472 76.2907L226.247 75.1365L225.117 60.9427C224.77 57.5974 223.625 54.3827 221.779 51.5655C221.587 51.2826 221.377 51.0122 221.151 50.756C219.816 49.2556 218.097 48.1428 216.178 47.5358C214.258 46.9289 212.209 46.8504 210.249 47.3087V47.3087Z" fill="#2F2E41"/>
<path d="M188.209 217.79C188.191 217.959 188.207 218.13 188.259 218.292C188.311 218.454 188.396 218.603 188.509 218.73C188.623 218.858 188.761 218.96 188.917 219.03C189.072 219.101 189.241 219.138 189.412 219.14L193.314 219.18C193.525 219.165 193.721 219.072 193.865 218.919C194.009 218.765 194.089 218.564 194.089 218.354V218.354C194.089 218.188 194.039 218.027 193.946 217.89C193.852 217.753 193.72 217.647 193.566 217.585L192.414 217.127L190.74 214.795H189.4C188.742 215.667 188.331 216.699 188.21 217.783L188.209 217.79H188.209Z" fill="#FFB8B8"/>
<path d="M178.868 217.79C178.887 217.959 178.87 218.13 178.818 218.292C178.767 218.454 178.681 218.603 178.568 218.73C178.455 218.858 178.316 218.96 178.16 219.03C178.005 219.101 177.836 219.138 177.666 219.14L173.763 219.18C173.553 219.165 173.356 219.072 173.212 218.919C173.068 218.765 172.989 218.564 172.989 218.354V218.354C172.989 218.188 173.038 218.027 173.132 217.89C173.225 217.753 173.357 217.647 173.512 217.585L174.663 217.127L176.338 214.795H177.677C178.335 215.667 178.746 216.699 178.867 217.783L178.868 217.79Z" fill="#FFB8B8"/>
<path d="M176.003 214.795H178.012L185.046 184.473L188.73 215.128H191.074L194.256 175.643L178.012 175.476L176.003 214.795Z" fill="#3F3D56"/>
<path d="M166.96 159.149H169.639V152.818L170.249 151.605C170.371 151.362 170.434 151.093 170.432 150.821C170.43 150.549 170.364 150.281 170.238 150.039C170.112 149.798 169.931 149.589 169.709 149.43C169.487 149.271 169.23 149.167 168.96 149.126V149.126C168.713 149.088 168.46 149.103 168.219 149.172C167.978 149.24 167.756 149.36 167.566 149.522C167.376 149.684 167.223 149.885 167.119 150.111C167.014 150.338 166.96 150.584 166.96 150.833V159.149V159.149Z" fill="#FFB8B8"/>
<path d="M182.869 143.488C186.291 143.488 189.065 140.728 189.065 137.324C189.065 133.919 186.291 131.159 182.869 131.159C179.447 131.159 176.673 133.919 176.673 137.324C176.673 140.728 179.447 143.488 182.869 143.488Z" fill="#FFB8B8"/>
<path d="M180.357 147.82H186.72V140.489H180.357V147.82Z" fill="#FFB8B8"/>
<path d="M177.342 176.476C182.975 179.934 188.93 179.596 195.093 176.809L193.754 145.821L186.72 145.487L179.352 146.487L175.668 149.486L177.342 176.476Z" fill="#FF637C"/>
<path d="M170.644 165.48L178.012 159.815L175.668 149.486L171.314 157.483L169.974 156.15L165.955 159.149L170.644 165.48Z" fill="#FF637C"/>
<path d="M203.351 146.353L201.008 147.645L197.923 142.108L196.799 141.341C196.573 141.187 196.388 140.982 196.257 140.743C196.126 140.504 196.053 140.238 196.045 139.966C196.037 139.694 196.094 139.424 196.211 139.178C196.328 138.932 196.502 138.717 196.718 138.55V138.55C196.916 138.398 197.145 138.29 197.389 138.234C197.632 138.177 197.886 138.174 198.131 138.225C198.376 138.275 198.607 138.377 198.809 138.525C199.011 138.672 199.178 138.861 199.299 139.079L200.267 140.815L203.351 146.353Z" fill="#FFB8B8"/>
<path d="M190.237 155.65L199.13 150.954L203.801 148.486L204.471 144.488L201.457 141.489L197.773 143.821L198.108 146.487L193.754 145.821L190.237 155.65Z" fill="#FF637C"/>
<path d="M184.208 142.322C188.278 142.322 191.577 139.04 191.577 134.991C191.577 130.943 188.278 127.661 184.208 127.661C180.139 127.661 176.84 130.943 176.84 134.991C176.84 139.04 180.139 142.322 184.208 142.322Z" fill="#2F2E41"/>
<path d="M188.228 129.993C190.077 129.993 191.577 128.501 191.577 126.661C191.577 124.821 190.077 123.329 188.228 123.329C186.378 123.329 184.878 124.821 184.878 126.661C184.878 128.501 186.378 129.993 188.228 129.993Z" fill="#2F2E41"/>
<path d="M188.065 129.447C188.729 129.792 189.49 129.905 190.226 129.769C190.963 129.633 191.632 129.255 192.127 128.696C192.622 128.137 192.915 127.428 192.957 126.685C193 125.941 192.791 125.204 192.364 124.592C192.751 124.882 193.07 125.252 193.3 125.677C193.529 126.101 193.663 126.57 193.692 127.052C193.722 127.533 193.646 128.015 193.47 128.464C193.293 128.913 193.021 129.319 192.672 129.653C192.323 129.987 191.905 130.242 191.447 130.4C190.989 130.558 190.502 130.615 190.02 130.567C189.538 130.519 189.072 130.368 188.654 130.123C188.236 129.879 187.877 129.547 187.601 129.151C187.747 129.262 187.902 129.361 188.065 129.447V129.447Z" fill="#2F2E41"/>
<path d="M208.748 134.78L208.978 142.793C209.01 143.897 208.62 144.973 207.887 145.802C207.153 146.632 206.131 147.155 205.026 147.265C204.318 147.335 203.604 147.233 202.944 146.968C202.284 146.703 201.699 146.283 201.239 145.743C200.779 145.203 200.458 144.56 200.303 143.869C200.148 143.179 200.164 142.461 200.349 141.777L202.157 135.125L207.361 106.823L207.014 90.2558L218.115 89.9106L216.034 108.549L208.748 134.78Z" fill="#FFB8B8"/>
<path d="M218.809 91.6363C214.787 90.1122 210.342 90.1122 206.32 91.6363L207.014 77.8305C207.014 76.3659 207.599 74.9613 208.64 73.9256C209.681 72.89 211.092 72.3082 212.565 72.3082V72.3082C214.037 72.3082 215.449 72.89 216.49 73.9256C217.531 74.9613 218.115 76.3659 218.115 77.8305L218.809 91.6363Z" fill="#FF637C"/>
</g>
<defs>
<clipPath id="clip0">
<rect width="296" height="224" fill="white"/>
</clipPath>
</defs>
</svg>
