<svg width="321" height="240" viewBox="0 0 321 240" fill="none" xmlns="http://www.w3.org/2000/svg">
<g clip-path="url(#clip0)">
<path opacity="0.1" d="M166.984 240C223.352 240 269.048 237.529 269.048 234.48C269.048 231.431 223.352 228.96 166.984 228.96C110.615 228.96 64.9198 231.431 64.9198 234.48C64.9198 237.529 110.615 240 166.984 240Z" fill="#FF637C"/>
<path d="M224.797 212.838L223.919 214.124L218.491 222.194L213.883 223.583L210.445 220.221L210.612 218.001L211.469 206.479C211.469 206.479 190.198 193.974 188.296 191.635C186.394 189.295 179.079 187.176 179.079 187.176C179.079 187.176 167.888 181.986 163.718 172.922C159.549 163.858 170.667 162.47 170.667 162.47L212.435 202.385L224.797 212.838Z" fill="#FFC1C7"/>
<path d="M229.917 217.516L216.677 229.869C216.677 229.869 209.07 231.331 202.267 230.308C197.919 229.653 198.756 227.27 199.9 225.63L199.921 225.6C200.606 224.662 201.608 224.004 202.741 223.747C208.371 222.39 210.313 218.317 210.313 218.317L214.41 221.826L221.505 213.563L226.751 216.025L229.917 217.516Z" fill="#575988"/>
<path opacity="0.1" d="M226.751 216.031L223.635 214.569L223.928 214.124L224.805 212.838L212.435 202.385L170.667 162.475C170.667 162.475 159.549 163.858 163.718 172.922C167.888 181.986 179.079 187.176 179.079 187.176C179.079 187.176 186.394 189.295 188.296 191.635C190.198 193.974 211.484 206.473 211.484 206.473L210.626 217.995L210.585 218.545L210.313 218.314C210.313 218.314 208.371 222.387 202.741 223.744C201.608 224.001 200.606 224.659 199.921 225.597L199.9 225.627C198.73 227.264 197.919 229.647 202.267 230.305C209.07 231.328 216.677 229.866 216.677 229.866L229.917 217.513L226.751 216.031Z" fill="black"/>
<path opacity="0.1" d="M3.46719 125.717C8.54655 147.412 19.2992 166.165 36.2899 175.261C71.6084 194.155 151.254 184.41 210.694 173.215C240.731 167.578 267.995 152.003 288.095 128.998L3.46719 125.717Z" fill="#FF637C"/>
<path opacity="0.1" d="M315.177 23.6009H282.562C281.83 23.5773 281.136 23.2702 280.627 22.7445C280.118 22.2187 279.833 21.5156 279.833 20.7838C279.833 20.052 280.118 19.3489 280.627 18.8232C281.136 18.2974 281.83 17.9903 282.562 17.9667H288.201C287.453 17.9667 286.737 17.6701 286.208 17.1421C285.68 16.614 285.383 15.8979 285.383 15.1511C285.383 14.4044 285.68 13.6882 286.208 13.1602C286.737 12.6321 287.453 12.3355 288.201 12.3355H284.175C283.443 12.3119 282.749 12.0048 282.239 11.4791C281.73 10.9533 281.445 10.2502 281.445 9.51841C281.445 8.78661 281.73 8.08349 282.239 7.55776C282.749 7.03203 283.443 6.7249 284.175 6.70133H301.197C297.42 4.94706 293.005 3.69859 287.917 3.04366C241.5 -2.91212 224.928 1.02624 219.082 5.09032C211.87 10.09 203.824 13.7682 195.224 15.54C166.586 21.4431 113.027 28.545 64.4838 13.2653C40.3569 5.66339 22.427 18.5047 11.6772 39.9537H320.839C320.435 33.7202 319.227 27.9661 317.009 22.9255C316.499 23.362 315.849 23.6016 315.177 23.6009V23.6009Z" fill="#FF637C"/>
<path opacity="0.1" d="M0.699297 80.4337C-0.553424 93.0513 -0.1284 105.779 1.96328 118.285L288.315 128.749C296.287 119.588 302.98 109.388 308.211 98.4297L0.699297 80.4337ZM113.955 107.429H108.317C108.695 107.417 109.071 107.481 109.424 107.617C109.776 107.753 110.098 107.959 110.37 108.221C110.641 108.484 110.857 108.799 111.005 109.147C111.152 109.495 111.228 109.868 111.228 110.246C111.228 110.624 111.152 110.998 111.005 111.346C110.857 111.694 110.641 112.008 110.37 112.271C110.098 112.534 109.776 112.739 109.424 112.876C109.071 113.012 108.695 113.075 108.317 113.063H75.7017C74.9697 113.04 74.2757 112.733 73.7662 112.207C73.2568 111.681 72.972 110.978 72.972 110.246C72.972 109.514 73.2568 108.811 73.7662 108.286C74.2757 107.76 74.9697 107.453 75.7017 107.429H81.3399C80.5926 107.429 79.8759 107.132 79.3475 106.604C78.8191 106.076 78.5223 105.36 78.5223 104.614C78.5223 103.867 78.8191 103.151 79.3475 102.623C79.8759 102.095 80.5926 101.798 81.3399 101.798H77.3139C76.5819 101.774 75.8878 101.467 75.3784 100.941C74.869 100.416 74.5841 99.7126 74.5841 98.9808C74.5841 98.249 74.869 97.5459 75.3784 97.0202C75.8878 96.4944 76.5819 96.1873 77.3139 96.1637H109.929C110.661 96.1873 111.355 96.4944 111.864 97.0202C112.374 97.5459 112.659 98.249 112.659 98.9808C112.659 99.7126 112.374 100.416 111.864 100.941C111.355 101.467 110.661 101.774 109.929 101.798H113.955C114.702 101.798 115.419 102.095 115.947 102.623C116.476 103.151 116.772 103.867 116.772 104.614C116.772 105.36 116.476 106.076 115.947 106.604C115.419 107.132 114.702 107.429 113.955 107.429V107.429Z" fill="#FF637C"/>
<path opacity="0.1" d="M320.854 40.1408L8.22761 47.7427C4.42394 57.5111 1.91645 68.5426 0.746094 80.001H315.376C317.43 73.2767 318.949 66.401 319.92 59.4379C320.857 52.7103 321.231 46.2019 320.854 40.1408ZM64.2146 65.0341H58.5764C58.9543 65.0219 59.3307 65.0858 59.6834 65.2219C60.036 65.358 60.3577 65.5635 60.6293 65.8263C60.9009 66.0891 61.1169 66.4038 61.2643 66.7516C61.4118 67.0994 61.4878 67.4734 61.4878 67.8511C61.4878 68.2289 61.4118 68.6028 61.2643 68.9507C61.1169 69.2985 60.9009 69.6132 60.6293 69.876C60.3577 70.1388 60.036 70.3443 59.6834 70.4804C59.3307 70.6165 58.9543 70.6804 58.5764 70.6682H25.9615C25.2295 70.6447 24.5354 70.3375 24.026 69.8118C23.5166 69.2861 23.2317 68.583 23.2317 67.8511C23.2317 67.1193 23.5166 66.4162 24.026 65.8905C24.5354 65.3648 25.2295 65.0576 25.9615 65.0341H31.5997C30.8524 65.0341 30.1357 64.7374 29.6073 64.2094C29.0789 63.6814 28.782 62.9652 28.782 62.2184C28.782 61.4717 29.0789 60.7555 29.6073 60.2275C30.1357 59.6995 30.8524 59.4028 31.5997 59.4028H27.5736C26.8417 59.3793 26.1476 59.0721 25.6382 58.5464C25.1287 58.0207 24.8439 57.3176 24.8439 56.5857C24.8439 55.8539 25.1287 55.1508 25.6382 54.6251C26.1476 54.0994 26.8417 53.7922 27.5736 53.7687H60.1886C60.9205 53.7922 61.6146 54.0994 62.1241 54.6251C62.6335 55.1508 62.9183 55.8539 62.9183 56.5857C62.9183 57.3176 62.6335 58.0207 62.1241 58.5464C61.6146 59.0721 60.9205 59.3793 60.1886 59.4028H64.2146C64.9619 59.4028 65.6786 59.6995 66.207 60.2275C66.7354 60.7555 67.0323 61.4717 67.0323 62.2184C67.0323 62.9652 66.7354 63.6814 66.207 64.2094C65.6786 64.7374 64.9619 65.0341 64.2146 65.0341V65.0341Z" fill="#FF637C"/>
<g opacity="0.1">
<path opacity="0.1" d="M233.285 144.325C233.285 144.325 241.536 124.004 256.943 116.467C263.427 113.347 268.721 108.209 272.032 101.824C273.581 98.7817 274.847 95.6039 275.815 92.3306" stroke="#535461" stroke-width="2" stroke-miterlimit="10"/>
<path opacity="0.1" d="M285.497 87.5239C283.891 89.5413 275.578 92.4944 275.578 92.4944C275.578 92.4944 276.579 83.7376 278.185 81.7202C278.552 81.1973 279.021 80.755 279.565 80.4203C280.109 80.0856 280.716 79.8657 281.348 79.7741C281.98 79.6825 282.624 79.7212 283.241 79.8877C283.858 80.0542 284.434 80.345 284.934 80.7423C285.434 81.1395 285.847 81.6348 286.148 82.1977C286.449 82.7606 286.632 83.3791 286.685 84.0152C286.738 84.6512 286.66 85.2915 286.457 85.8964C286.253 86.5013 285.927 87.0582 285.5 87.5327L285.497 87.5239Z" fill="#FF637C"/>
<path opacity="0.1" d="M282.644 103.502C280.198 104.324 271.62 102.28 271.62 102.28C271.62 102.28 277.223 95.4737 279.669 94.6521C280.261 94.4095 280.897 94.2909 281.537 94.3036C282.178 94.3164 282.808 94.4603 283.391 94.7263C283.973 94.9924 284.495 95.375 284.923 95.8505C285.352 96.326 285.678 96.8843 285.882 97.4909C286.086 98.0974 286.163 98.7393 286.109 99.3769C286.055 100.014 285.87 100.634 285.567 101.198C285.263 101.761 284.847 102.256 284.345 102.653C283.842 103.049 283.263 103.338 282.644 103.502V103.502Z" fill="#FF637C"/>
<path opacity="0.1" d="M267.178 122.393C264.653 121.867 258.278 115.777 258.278 115.777C258.278 115.777 266.555 112.727 269.08 113.25C270.229 113.565 271.215 114.305 271.837 115.32C272.459 116.335 272.671 117.549 272.428 118.715C272.186 119.88 271.508 120.91 270.532 121.593C269.557 122.277 268.357 122.563 267.178 122.393V122.393Z" fill="#FF637C"/>
<path opacity="0.1" d="M252.256 134.05C249.678 133.963 242.364 129.033 242.364 129.033C242.364 129.033 250.006 124.63 252.584 124.72C253.224 124.7 253.862 124.812 254.458 125.048C255.054 125.285 255.594 125.641 256.047 126.095C256.499 126.548 256.853 127.09 257.087 127.686C257.322 128.282 257.431 128.92 257.409 129.56C257.386 130.2 257.232 130.829 256.957 131.407C256.681 131.986 256.29 132.501 255.807 132.922C255.324 133.343 254.759 133.66 254.149 133.854C253.538 134.048 252.894 134.115 252.256 134.05V134.05Z" fill="#FF637C"/>
<path opacity="0.1" d="M263.632 96.5701C263.96 99.1284 269.548 105.947 269.548 105.947C269.548 105.947 273.229 97.9355 272.898 95.3801C272.67 94.215 272.006 93.1804 271.042 92.4861C270.078 91.7917 268.886 91.4896 267.708 91.641C266.529 91.7923 265.452 92.3858 264.696 93.3011C263.939 94.2164 263.558 95.3851 263.632 96.5701Z" fill="#FF637C"/>
<path opacity="0.1" d="M246.352 110.426C247.431 112.765 254.807 117.604 254.807 117.604C254.807 117.604 255.916 108.862 254.837 106.52C254.269 105.477 253.326 104.689 252.199 104.315C251.072 103.941 249.844 104.009 248.765 104.506C247.687 105.003 246.837 105.891 246.389 106.99C245.941 108.089 245.927 109.317 246.352 110.426Z" fill="#FF637C"/>
<path opacity="0.1" d="M231.406 126.197C232.076 128.688 238.525 134.699 238.525 134.699C238.525 134.699 241.1 126.27 240.433 123.779C240.054 122.65 239.258 121.708 238.208 121.145C237.158 120.581 235.933 120.439 234.782 120.748C233.631 121.056 232.641 121.791 232.014 122.804C231.386 123.817 231.169 125.03 231.406 126.197V126.197Z" fill="#FF637C"/>
<path opacity="0.25" d="M285.497 87.5239C283.891 89.5413 275.578 92.4944 275.578 92.4944C275.578 92.4944 276.579 83.7376 278.185 81.7202C278.552 81.1973 279.021 80.755 279.565 80.4203C280.109 80.0856 280.716 79.8657 281.348 79.7741C281.98 79.6825 282.624 79.7212 283.241 79.8877C283.858 80.0542 284.434 80.345 284.934 80.7423C285.434 81.1395 285.847 81.6348 286.148 82.1977C286.449 82.7606 286.632 83.3791 286.685 84.0152C286.738 84.6512 286.66 85.2915 286.457 85.8964C286.253 86.5013 285.927 87.0582 285.5 87.5327L285.497 87.5239Z" fill="black"/>
<path opacity="0.25" d="M282.644 103.502C280.198 104.324 271.62 102.28 271.62 102.28C271.62 102.28 277.223 95.4737 279.669 94.6521C280.261 94.4095 280.897 94.2909 281.537 94.3036C282.178 94.3164 282.808 94.4603 283.391 94.7263C283.973 94.9924 284.495 95.375 284.923 95.8505C285.352 96.326 285.678 96.8843 285.882 97.4909C286.086 98.0974 286.163 98.7393 286.109 99.3769C286.055 100.014 285.87 100.634 285.567 101.198C285.263 101.761 284.847 102.256 284.345 102.653C283.842 103.049 283.263 103.338 282.644 103.502V103.502Z" fill="black"/>
<path opacity="0.25" d="M267.178 122.393C264.653 121.867 258.278 115.777 258.278 115.777C258.278 115.777 266.555 112.727 269.08 113.25C270.229 113.565 271.215 114.305 271.837 115.32C272.459 116.335 272.671 117.549 272.428 118.715C272.186 119.88 271.508 120.91 270.532 121.593C269.557 122.277 268.357 122.563 267.178 122.393V122.393Z" fill="black"/>
<path opacity="0.25" d="M252.256 134.05C249.678 133.963 242.364 129.033 242.364 129.033C242.364 129.033 250.006 124.63 252.584 124.72C253.224 124.7 253.862 124.812 254.458 125.048C255.054 125.285 255.594 125.641 256.047 126.095C256.499 126.548 256.853 127.09 257.087 127.686C257.322 128.282 257.431 128.92 257.409 129.56C257.386 130.2 257.232 130.829 256.957 131.407C256.681 131.986 256.29 132.501 255.807 132.922C255.324 133.343 254.759 133.66 254.149 133.854C253.538 134.048 252.894 134.115 252.256 134.05V134.05Z" fill="black"/>
<path opacity="0.25" d="M263.632 96.5701C263.96 99.1284 269.548 105.947 269.548 105.947C269.548 105.947 273.229 97.9355 272.898 95.3801C272.67 94.215 272.006 93.1804 271.042 92.4861C270.078 91.7917 268.886 91.4896 267.708 91.641C266.529 91.7923 265.452 92.3858 264.696 93.3011C263.939 94.2164 263.558 95.3851 263.632 96.5701Z" fill="black"/>
<path opacity="0.25" d="M246.352 110.426C247.431 112.765 254.807 117.604 254.807 117.604C254.807 117.604 255.916 108.862 254.837 106.52C254.269 105.477 253.326 104.689 252.199 104.315C251.072 103.941 249.844 104.009 248.765 104.506C247.687 105.003 246.837 105.891 246.389 106.99C245.941 108.089 245.927 109.317 246.352 110.426Z" fill="black"/>
<path opacity="0.25" d="M231.406 126.197C232.076 128.688 238.525 134.699 238.525 134.699C238.525 134.699 241.1 126.27 240.433 123.779C240.054 122.65 239.258 121.708 238.208 121.145C237.158 120.581 235.933 120.439 234.782 120.748C233.631 121.056 232.641 121.791 232.014 122.804C231.386 123.817 231.169 125.03 231.406 126.197V126.197Z" fill="black"/>
</g>
<g opacity="0.1">
<path opacity="0.1" d="M220.147 111.815C220.147 111.815 221.189 89.9097 233.223 77.6912C238.303 72.5997 241.594 65.9988 242.601 58.8794C243.049 55.4929 243.186 52.0723 243.01 48.6608" stroke="#535461" stroke-width="2" stroke-miterlimit="10"/>
<path opacity="0.1" d="M250.556 40.9127C249.711 43.3512 242.846 48.883 242.846 48.883C242.846 48.883 240.886 40.2899 241.729 37.8544C242.191 36.7599 243.052 35.8819 244.138 35.3986C245.224 34.9153 246.453 34.8629 247.576 35.252C248.699 35.6411 249.632 36.4426 250.185 37.4938C250.739 38.5451 250.871 39.7674 250.556 40.9127Z" fill="#FF637C"/>
<path opacity="0.1" d="M253.169 56.9351C251.121 58.5198 242.361 59.4379 242.361 59.4379C242.361 59.4379 245.389 51.1577 247.423 49.573C248.406 48.9038 249.607 48.6336 250.782 48.8173C251.957 49.001 253.018 49.6248 253.75 50.562C254.481 51.4993 254.828 52.6796 254.72 53.8633C254.613 55.047 254.058 56.1453 253.169 56.9351V56.9351Z" fill="#FF637C"/>
<path opacity="0.1" d="M244.848 79.8811C242.29 80.2232 234.253 76.5889 234.253 76.5889C234.253 76.5889 241.05 70.9694 243.616 70.6273C244.802 70.5462 245.975 70.9192 246.896 71.6706C247.817 72.422 248.418 73.4956 248.576 74.6733C248.733 75.851 248.437 77.0446 247.746 78.0118C247.055 78.979 246.022 79.6473 244.857 79.8811H244.848Z" fill="#FF637C"/>
<path opacity="0.1" d="M234.636 95.8246C232.176 96.5965 223.641 94.3627 223.641 94.3627C223.641 94.3627 229.387 87.6789 231.851 86.9099C232.449 86.6764 233.089 86.5684 233.731 86.5926C234.372 86.6168 235.002 86.7726 235.581 87.0505C236.16 87.3283 236.676 87.7222 237.096 88.2077C237.516 88.6931 237.831 89.2597 238.023 89.8722C238.214 90.4848 238.278 91.1301 238.209 91.7682C238.14 92.4062 237.941 93.0233 237.623 93.581C237.305 94.1388 236.876 94.6253 236.363 95.0102C235.849 95.3952 235.261 95.6704 234.636 95.8187V95.8246Z" fill="#FF637C"/>
<path opacity="0.1" d="M232.931 56.6954C234.101 58.9993 241.626 63.5809 241.626 63.5809C241.626 63.5809 242.437 54.8095 241.278 52.5026C240.676 51.4788 239.707 50.7221 238.567 50.3861C237.427 50.0501 236.202 50.16 235.14 50.6933C234.078 51.2266 233.259 52.1436 232.849 53.2582C232.438 54.3728 232.468 55.6016 232.931 56.6954V56.6954Z" fill="#FF637C"/>
<path opacity="0.1" d="M221.227 75.4954C223.023 77.3461 231.585 79.4659 231.585 79.4659C231.585 79.4659 229.733 70.8465 227.936 68.9958C227.055 68.1952 225.902 67.7602 224.712 67.7791C223.521 67.7981 222.383 68.2696 221.528 69.0978C220.673 69.926 220.166 71.0486 220.11 72.2371C220.054 73.4256 220.454 74.5908 221.227 75.4954V75.4954Z" fill="#FF637C"/>
<path opacity="0.1" d="M212.362 95.3246C213.824 97.4531 221.9 100.988 221.9 100.988C221.9 100.988 221.528 92.1815 220.074 90.053C219.339 89.1256 218.279 88.5111 217.108 88.3334C215.938 88.1557 214.743 88.4278 213.765 89.0951C212.787 89.7624 212.099 90.7752 211.838 91.9295C211.578 93.0837 211.765 94.2938 212.362 95.3158V95.3246Z" fill="#FF637C"/>
</g>
<path opacity="0.1" d="M126.109 24.9985C126.109 24.9985 119.137 24.5804 119.965 29.4631C119.922 29.7109 119.959 29.9657 120.071 30.191C120.182 30.4163 120.362 30.6006 120.585 30.7174C120.585 30.7174 120.585 30.3549 121.299 30.4777C121.549 30.5211 121.803 30.5339 122.057 30.5157C122.399 30.4919 122.725 30.3575 122.984 30.1327V30.1327C122.984 30.1327 124.944 29.3228 125.705 26.1212C125.705 26.1212 126.27 25.4224 126.247 25.2441L125.076 25.747C125.076 25.747 125.477 26.5949 125.161 27.2995C125.161 27.2995 125.123 25.7762 124.898 25.8113C124.851 25.8113 124.286 26.1037 124.286 26.1037C124.286 26.1037 124.98 27.5831 124.456 28.6561C124.456 28.6561 124.655 26.8346 124.07 26.2118L123.242 26.6943C123.242 26.6943 124.049 28.2205 123.502 29.466C123.502 29.466 123.642 27.5568 123.069 26.8112L122.317 27.396C122.317 27.396 123.078 28.9017 122.61 29.9338C122.61 29.9338 122.551 27.7088 122.15 27.5422C121.866 27.7825 121.613 28.0564 121.395 28.3579C121.395 28.3579 121.913 29.4514 121.591 30.0274C121.591 30.0274 121.395 28.545 121.232 28.5392C121.232 28.5392 120.576 29.5216 120.509 30.1941C120.54 29.57 120.735 28.9651 121.074 28.4398C120.696 28.5113 120.347 28.6911 120.07 28.9573C120.07 28.9573 120.172 28.2644 121.24 28.203C121.24 28.203 121.782 27.4574 121.925 27.4135C121.925 27.4135 120.869 27.3229 120.231 27.6094C120.231 27.6094 120.793 26.9545 122.118 27.2498L122.861 26.6475C122.861 26.6475 121.471 26.4574 120.88 26.665C120.88 26.665 121.559 26.0803 123.06 26.5101L123.868 26.0276C123.247 25.8902 122.61 25.8352 121.975 25.8639C121.975 25.8639 122.721 25.4634 124.105 25.8961L124.69 25.6388C124.69 25.6388 123.812 25.4692 123.566 25.44C123.321 25.4107 123.3 25.3435 123.3 25.3435C123.85 25.2519 124.414 25.3147 124.93 25.5248C124.93 25.5248 126.132 25.0774 126.109 24.9985Z" fill="#FF637C"/>
<path opacity="0.1" d="M107.799 48.7602C107.799 48.7602 105.417 55.3241 110.336 55.9235C110.562 56.0341 110.817 56.0705 111.065 56.0275C111.313 55.9844 111.541 55.8641 111.717 55.6837C111.717 55.6837 111.371 55.5697 111.69 54.9323C111.799 54.7041 111.879 54.4636 111.93 54.216C112.005 53.8813 111.969 53.5314 111.828 53.219V53.219C111.828 53.219 111.608 51.1109 108.753 49.4736C108.753 49.4736 108.241 48.7339 108.062 48.7046L108.211 49.9736C108.211 49.9736 109.139 49.8303 109.727 50.3332C109.727 50.3332 108.264 49.9385 108.223 50.1636C108.223 50.2104 108.331 50.8331 108.331 50.8331C108.331 50.8331 109.946 50.5905 110.83 51.3945C110.83 51.3945 109.139 50.6899 108.375 51.07L108.603 52.0027C108.603 52.0027 110.297 51.6606 111.336 52.5406C111.336 52.5406 109.543 51.8623 108.665 52.2015L109.013 53.0786C109.013 53.0786 110.672 52.7862 111.532 53.5143C111.532 53.5143 109.382 52.9295 109.107 53.2774C109.257 53.6185 109.448 53.9396 109.677 54.2335C109.677 54.2335 110.871 54.0464 111.333 54.5259C111.333 54.5259 109.856 54.2949 109.803 54.4499C109.803 54.4499 110.558 55.3563 111.184 55.6194C110.597 55.4127 110.074 55.0558 109.668 54.5844C109.633 54.9618 109.707 55.3415 109.882 55.6779C109.882 55.6779 109.247 55.3855 109.49 54.3505C109.49 54.3505 108.928 53.6195 108.925 53.4733C108.925 53.4733 108.542 54.4616 108.633 55.1545C108.633 55.1545 108.165 54.4294 108.826 53.2424L108.457 52.3652C108.457 52.3652 107.872 53.6429 107.913 54.2657C107.913 54.2657 107.55 53.4529 108.381 52.1342L108.147 51.2249C107.841 51.7776 107.608 52.3672 107.454 52.9792C107.454 52.9792 107.281 52.1489 108.091 50.9501L108.006 50.3215C108.006 50.3215 107.597 51.1051 107.497 51.3419C107.398 51.5787 107.328 51.5699 107.328 51.5699C107.397 51.017 107.618 50.4939 107.966 50.0583C107.966 50.0583 107.881 48.7631 107.799 48.7602Z" fill="#FF637C"/>
<path opacity="0.1" d="M154.04 43.2313C154.04 43.2313 151.655 49.7923 156.576 50.3917C156.802 50.5025 157.056 50.5392 157.304 50.4967C157.551 50.4541 157.779 50.3345 157.954 50.1548C157.954 50.1548 157.612 50.0408 157.928 49.4005C158.041 49.1727 158.125 48.9322 158.18 48.6842C158.255 48.3503 158.218 48.0008 158.074 47.6901V47.6901C158.074 47.6901 157.855 45.582 154.999 43.9418C154.999 43.9418 154.49 43.202 154.312 43.1728L154.458 44.4447C154.458 44.4447 155.388 44.2985 155.974 44.8014C155.974 44.8014 154.511 44.4066 154.473 44.6347C154.473 44.6786 154.581 45.3043 154.581 45.3043C154.581 45.3043 156.196 45.0587 157.077 45.8656C157.077 45.8656 155.388 45.1581 154.622 45.5411L154.85 46.4709C154.85 46.4709 156.544 46.1288 157.586 47.0088C157.586 47.0088 155.792 46.3305 154.914 46.6726L155.263 47.5497C155.263 47.5497 156.922 47.2574 157.782 47.9854C157.782 47.9854 155.631 47.4006 155.356 47.7456C155.506 48.0861 155.697 48.4071 155.924 48.7017C155.924 48.7017 157.121 48.5146 157.583 48.9941C157.583 48.9941 156.102 48.7631 156.053 48.9152C156.053 48.9152 156.808 49.8215 157.434 50.0847C156.846 49.8767 156.322 49.5189 155.915 49.0467C155.876 49.429 155.951 49.8143 156.129 50.1548C156.129 50.1548 155.491 49.8625 155.734 48.8245C155.734 48.8245 155.175 48.0965 155.172 47.9474C155.172 47.9474 154.786 48.9327 154.879 49.6286C154.879 49.6286 154.411 48.9005 155.075 47.7164L154.704 46.8393C154.704 46.8393 154.119 48.117 154.163 48.7426C154.163 48.7426 153.8 47.9269 154.631 46.6083L154.397 45.699C154.09 46.2513 153.857 46.8409 153.703 47.4532C153.703 47.4532 153.528 46.6258 154.338 45.4241L154.253 44.7984C154.253 44.7984 153.844 45.582 153.747 45.8159C153.65 46.0498 153.577 46.0469 153.577 46.0469C153.645 45.4935 153.866 44.97 154.215 44.5353C154.215 44.5353 154.119 43.2313 154.04 43.2313Z" fill="#FF637C"/>
<path opacity="0.1" d="M78.4842 35.0096C78.4842 35.0096 76.0996 41.5735 81.021 42.1699C81.2461 42.2816 81.501 42.3189 81.7487 42.2763C81.9964 42.2337 82.2242 42.1135 82.3991 41.9331C82.3991 41.9331 82.0567 41.8191 82.3727 41.1817C82.4839 40.9534 82.5684 40.713 82.6244 40.4654C82.6984 40.1304 82.6614 39.7805 82.519 39.4684C82.519 39.4684 82.2996 37.3603 79.4439 35.72C79.4439 35.72 78.9348 34.9832 78.7563 34.954L78.9026 36.2229C78.9026 36.2229 79.8301 36.0797 80.4182 36.5826C80.4182 36.5826 78.9553 36.1849 78.9173 36.413C78.9173 36.4598 79.0255 37.0825 79.0255 37.0825C79.0255 37.0825 80.6406 36.8399 81.5213 37.6439C81.5213 37.6439 79.8301 36.9363 79.0665 37.3194L79.2947 38.2521C79.2947 38.2521 80.9888 37.91 82.0275 38.79C82.0275 38.79 80.2368 38.1117 79.3591 38.4509L79.7072 39.328C79.7072 39.328 81.3662 39.0356 82.2264 39.7637C82.2264 39.7637 80.073 39.1789 79.8009 39.5239C79.9506 39.8653 80.1412 40.1874 80.3685 40.4829C80.3685 40.4829 81.5652 40.2929 82.0245 40.7753C82.0245 40.7753 80.547 40.5443 80.4943 40.6993C80.4943 40.6993 81.2521 41.6027 81.8783 41.8688C81.2896 41.6621 80.7659 41.3041 80.3597 40.8308C80.3209 41.2131 80.3952 41.5984 80.5733 41.939C80.5733 41.939 79.9355 41.6466 80.1783 40.6116C80.1783 40.6116 79.6165 39.8806 79.6165 39.7344C79.6165 39.7344 79.2303 40.7227 79.324 41.4156C79.324 41.4156 78.8558 40.6905 79.5171 39.5034L79.1484 38.6263C79.1484 38.6263 78.5632 39.9069 78.6042 40.5297C78.6042 40.5297 78.2414 39.7169 79.0723 38.3982L78.8412 37.486C78.535 38.0383 78.3019 38.628 78.1478 39.2403C78.1478 39.2403 77.9722 38.4129 78.7827 37.2112L78.6978 36.5855C78.6978 36.5855 78.2882 37.3691 78.1916 37.6059C78.0951 37.8427 78.0219 37.834 78.0219 37.834C78.0893 37.281 78.3091 36.7577 78.6569 36.3223C78.6569 36.3223 78.5749 35.0125 78.4842 35.0096Z" fill="#FF637C"/>
<path opacity="0.1" d="M151.737 79.5332C151.737 79.5332 153.577 86.2579 157.943 83.9189C158.191 83.8794 158.42 83.7626 158.598 83.5851C158.775 83.4076 158.892 83.1785 158.932 82.9306C158.932 82.9306 158.586 83.033 158.475 82.3283C158.436 82.0782 158.366 81.8338 158.268 81.6003C158.135 81.2845 157.904 81.0199 157.609 80.846V80.846C157.609 80.846 156.214 79.2525 152.928 79.5566C152.928 79.5566 152.085 79.2466 151.921 79.3256L152.776 80.2787C152.776 80.2787 153.449 79.6267 154.218 79.694C154.218 79.694 152.787 80.2173 152.896 80.4191C152.916 80.46 153.37 80.9044 153.37 80.9044C153.37 80.9044 154.54 79.7758 155.734 79.925C155.734 79.925 153.946 80.3226 153.539 81.074L154.265 81.7055C154.265 81.7055 155.453 80.4483 156.808 80.5682C156.808 80.5682 154.953 81.0477 154.432 81.8313L155.228 82.3546C155.228 82.3546 156.398 81.153 157.536 81.2582C157.536 81.2582 155.45 82.0301 155.418 82.4599C155.737 82.6525 156.079 82.8057 156.436 82.916C156.436 82.916 157.314 82.074 157.952 82.1938C157.952 82.1938 156.611 82.8546 156.658 83.0125C156.658 83.0125 157.796 83.3049 158.458 83.1645C157.858 83.3341 157.224 83.3431 156.62 83.1908C156.808 83.5253 157.09 83.7976 157.431 83.9744C157.431 83.9744 156.74 84.1001 156.342 83.1148C156.342 83.1148 155.465 82.8429 155.374 82.7201C155.374 82.7201 155.628 83.7464 156.105 84.2609C156.105 84.2609 155.304 83.9393 155.16 82.5885L154.356 82.0886C154.356 82.0886 154.619 83.4657 155.008 83.9569C155.008 83.9569 154.242 83.5008 154.16 81.9453L153.443 81.3372C153.514 81.9681 153.666 82.5872 153.896 83.1791C153.896 83.1791 153.276 82.5944 153.247 81.153L152.814 80.691C152.814 80.691 152.931 81.5681 152.989 81.8167C153.048 82.0652 152.989 82.109 152.989 82.109C152.725 81.618 152.602 81.0633 152.635 80.5068C152.635 80.5068 151.804 79.4864 151.737 79.5332Z" fill="#FF637C"/>
<path d="M238.604 117.467C239.242 118.204 239.946 118.881 240.708 119.49L246.407 124.343C247.423 125.206 248.455 126.098 249.743 126.504C250.505 126.743 251.311 126.805 252.1 126.684C252.89 126.562 253.641 126.262 254.295 125.805L254.199 125.773L254.295 125.709C253.333 125.399 252.347 125.077 251.554 124.454C251.227 124.21 250.953 123.903 250.746 123.552C250.539 123.201 250.404 122.812 250.348 122.408V122.408C250.348 122.367 250.348 122.329 250.348 122.288C250.351 122.177 250.361 122.067 250.381 121.957C251.609 121.853 252.79 121.437 253.813 120.75L253.713 120.715L253.813 120.653C250.776 119.68 248.672 116.832 247.718 113.818C246.764 110.803 246.761 107.593 246.659 104.438C246.556 101.283 246.322 98.0408 244.959 95.1872C244.447 94.1171 243.789 93.0996 243.54 91.9418C243.471 91.5981 243.439 91.2483 243.443 90.898C243.464 89.7723 243.791 88.6408 244.093 87.5415C244.763 85.0862 245.298 82.5963 245.696 80.0828C245.853 79.1894 245.94 78.2852 245.957 77.3783C245.984 76.4932 245.842 75.6109 245.538 74.7791C244.198 71.2997 239.54 69.6595 238.829 66.0077C238.746 65.5162 238.71 65.0178 238.724 64.5195C238.724 64.2446 238.724 63.9727 238.724 63.7008C238.724 63.4289 238.724 63.116 238.7 62.8471C238.499 60.277 236.907 58.0462 235.371 55.9615C233.522 53.4529 231.567 50.8449 228.726 49.5087C226.52 48.4649 223.571 48.1199 220.94 48.3538C219.76 47.3361 218.466 46.458 217.084 45.737C215.074 44.6201 212.988 43.5207 210.761 43.2751C207.938 42.9652 205.146 44.047 202.314 44.2283C198.463 44.4768 194.683 43.0588 190.833 42.7664C186.982 42.474 182.55 43.7693 180.829 47.6433C180.426 48.584 180.181 49.5847 180.104 50.6051V50.6051C180.086 50.801 180.074 50.994 180.065 51.1899V51.2103C180.037 52.0014 180.059 52.7934 180.133 53.5815V53.6722C180.133 53.8301 180.162 53.9879 180.18 54.1458C180.18 54.1926 180.18 54.2365 180.194 54.2832C180.194 54.4294 180.226 54.5756 180.244 54.7218L180.261 54.8592C180.285 55.0434 180.311 55.2276 180.335 55.4118C180.379 55.7911 180.46 56.1652 180.577 56.5287C180.649 56.7388 180.754 56.9362 180.888 57.1135C181.306 57.6456 181.935 57.8035 182.585 57.9029L183.097 57.976C183.044 58.0813 182.988 58.1865 182.939 58.2947C181.778 60.7405 181.178 63.4146 181.183 66.1217C181.183 75.32 187.998 82.9452 196.901 84.3311L197.437 84.9977C200.719 89.1086 204.839 94.5966 206.799 98.5466C204.535 101.356 201.884 106.339 201.129 114.695L200.008 117.309C197.659 120.686 197.053 125.557 197.659 130.089C196.998 132.539 196.243 135.617 195.719 138.164C191.825 137.302 178.532 135.167 175.39 133.094L166.173 128.755C166.173 128.755 154.177 120.382 147.723 123.177C145.256 120.148 141.534 116.975 139.931 115.777C137.181 113.715 130.34 105.663 130.34 105.663L119.622 91.4476C119.593 89.8015 119.417 88.3952 118.967 87.79C117.703 86.1 111.011 82.3488 109.674 83.1587C108.337 83.9686 107.219 81.4044 107.219 81.4044L107.117 81.3488C106.865 81.2027 106.151 80.7992 105.16 80.267C105.107 79.0803 105.137 77.8915 105.247 76.7088C105.268 76.51 105.294 76.3111 105.323 76.124C108.876 75.9959 112.29 74.7115 115.044 72.4663C117.799 70.2211 119.745 67.138 120.585 63.6862C120.632 63.502 120.664 63.3119 120.702 63.1248C121.182 63.2361 121.682 63.2225 122.155 63.0853C122.627 62.9481 123.057 62.6919 123.403 62.3412C124.339 61.3354 124.38 59.7888 124.081 58.4555C123.783 57.1223 123.204 55.8446 123.057 54.4821C122.873 52.6255 123.528 50.6811 122.926 48.9268C122.419 47.4299 121.085 46.3422 119.663 45.6317C118.241 44.9212 116.685 44.5061 115.231 43.8599C113.844 43.2459 112.553 42.4214 111.114 41.936C109.247 41.3074 107.24 41.284 105.262 41.3308C104.021 40.8308 102.757 40.3543 101.429 40.2052C99.9661 40.0385 98.3569 40.3221 97.2421 41.2957C96.3644 42.0735 95.6505 43.3219 94.4596 43.3629C93.8744 43.3833 93.3478 43.0939 92.827 42.8453C91.3494 42.1378 89.4797 41.7372 88.1455 42.6758C87.0746 43.4243 86.6826 44.8014 86.4982 46.0849C86.3139 47.3685 86.2817 48.7163 85.6614 49.8654C85.2781 50.5729 84.6959 51.1489 84.2131 51.7922C82.9912 53.425 82.415 55.4509 82.5951 57.4819V57.5404C82.5249 57.248 82.4576 56.9761 82.4078 56.6895C82.4078 56.9059 82.4078 57.1193 82.4371 57.3357C82.5643 58.3388 82.7827 59.3282 83.0896 60.2916L84.3009 64.5312C84.9153 66.6831 85.5444 68.8672 86.7148 70.7822C87.1713 71.5367 87.723 72.2295 88.3562 72.8435C89.3536 73.89 90.6297 74.6296 92.034 74.975C92.5272 75.0856 93.035 75.1162 93.538 75.0656C93.538 75.127 93.5233 75.1855 93.5116 75.2469C93.4034 75.2264 93.2922 75.203 93.1898 75.1884C92.7145 75.0894 92.2226 75.1024 91.7532 75.2264C89.4417 76.048 88.7395 78.5478 88.5347 79.5302C88.4879 79.7817 88.4732 79.9337 88.4732 79.9337C88.4732 79.9337 88.5113 80.0799 88.5551 80.3284L88.5347 80.4132C88.4879 80.6618 88.4732 80.8167 88.4732 80.8167C88.4732 80.8167 88.5113 80.9629 88.5551 81.2173L87.9524 81.2319L77.8727 82.5476C75.57 82.3897 73.3785 82.3517 72.2052 82.6324C72.106 82.6543 72.0082 82.6826 71.9127 82.7172C70.4497 83.223 63.7465 87.8455 57.7308 92.0997C57.7308 91.9827 57.7308 91.8687 57.7133 91.7576L56.0016 92.9739C56.0016 93.0879 56.0016 93.2078 56.0016 93.3276C55.5745 93.62 55.1502 93.93 54.7406 94.2253C52.9002 95.541 51.2295 96.728 49.986 97.6373C48.4704 98.725 47.5312 99.4121 47.5312 99.4121C47.5312 99.4121 46.9752 99.5934 46.6066 100.45C46.1326 101.546 45.9687 103.751 47.6804 108.09C50.7292 115.812 51.3963 121.034 51.3963 121.034C50.5691 121.12 49.7573 121.317 48.9824 121.618C47.9262 122.039 46.8231 122.753 46.3637 123.957C46.0688 124.799 46.0616 125.714 46.3433 126.56C47.7535 131.559 71.0993 159.949 71.0993 159.949L71.3918 159.976C72.5891 160.081 73.7934 160.081 74.9907 159.976C76.0821 159.862 77.1032 159.601 77.5713 159.052C77.5713 159.052 82.7472 165.692 90.3487 161.169C90.2961 167.192 90.1439 171.609 91.1007 173.834C92.59 177.29 92.59 185.158 92.59 185.158L94.0061 185.208C93.93 185.5 93.8452 185.793 93.7545 186.085C93.102 188.24 92.1394 190.845 91.1212 191.468C89.4066 192.52 90.22 210.613 90.2902 212.174C90.2902 212.236 90.2902 212.268 90.2902 212.268L90.1907 219.577V220.162C89.9782 219.877 89.7875 219.576 89.6202 219.261C89.6202 219.261 86.864 221.893 86.8142 227.448C86.7645 233.003 86.864 233.19 86.864 233.19C86.864 233.19 97.9824 232.761 100.069 233.527C102.155 234.293 119.602 232.86 119.602 232.86C119.602 232.86 120.248 231.182 118.388 229.892C121.354 229.679 124.59 229.112 126.486 227.738C130.656 224.729 118.075 222.384 117.197 221.908C116.319 221.431 111.971 217.598 110.175 216.162C109.632 215.766 108.99 215.527 108.32 215.472L108.545 208.92C111.222 205.906 114.122 189.284 114.122 189.284C115.07 188.494 115.482 186.573 115.652 185.401C115.998 185.286 116.301 185.068 116.519 184.776C116.737 184.483 116.861 184.131 116.872 183.767V183.767C119.935 183.869 123.789 183.846 124.529 183.112C125.793 181.86 125.644 177.594 125.644 177.594L123.859 132.439L123.742 132.267C124.037 130.2 124.043 128.102 123.76 126.033C127.768 127.176 130.887 127.954 130.887 127.954C130.887 127.954 136.92 129.065 141.154 130.001C140.461 130.736 139.938 131.615 139.621 132.574C135.817 143.392 157.39 142.945 157.39 142.945L167.575 147.652L191.55 155.482C183.846 153.21 175.045 150.538 169.055 148.704C168.466 148.524 167.866 148.379 167.259 148.269C161.764 147.275 156.056 149.275 152.556 153.687C152.515 153.742 152.477 153.792 152.433 153.844C151.595 154.934 151.128 156.263 151.101 157.636C151.074 159.01 151.487 160.357 152.281 161.478C153.197 162.774 154.423 164.496 155.86 166.499C152.82 167.417 147.79 169.975 150.847 176.554C155.084 185.673 166.457 190.88 166.457 190.88C166.457 190.88 173.892 193.015 175.82 195.368C176.361 196.029 178.453 197.494 181.189 199.26C182.945 201.116 184.32 202.33 185.136 202.599C188.395 203.672 194.742 208.821 199.207 212.683L198.537 221.91L198.493 222.466L198.218 222.232C198.218 222.232 196.243 226.325 190.52 227.697C189.372 227.955 188.355 228.617 187.655 229.562L187.635 229.588L187.465 229.834L187.336 229.737C186.166 231.384 185.622 233.781 190.04 234.442C196.954 235.471 204.669 234 204.669 234L211.563 227.632C212.329 228.276 213.228 228.743 214.196 228.998C219.349 230.167 233.82 235.763 233.82 235.763C233.82 234.193 246.609 213.996 246.609 213.996C263.872 181.343 245.099 156.941 243.025 154.4L242.841 154.178L242.68 151.464L242.645 150.842C242.645 150.842 251.961 146.725 248.391 144.766C244.821 142.807 242.832 133.39 239.47 129.469C236.837 126.41 236.989 119.311 236.711 113.262C237.013 114.756 237.661 116.158 238.604 117.355C238.624 117.382 238.648 117.402 238.668 117.429L238.42 117.212C238.481 117.306 238.539 117.388 238.604 117.467ZM123.812 114.958C125.012 116.247 127.107 117.896 128.494 118.943C126.832 118.133 125.538 117.449 124.541 116.896C124.307 116.247 124.061 115.598 123.812 114.958V114.958ZM88.324 84.3604C88.0374 85.2188 87.5153 85.9796 86.8172 86.5561L86.232 84.0329C86.9986 84.1557 87.7125 84.2697 88.324 84.3604ZM205.266 153.687C205.497 153.19 205.737 152.701 205.98 152.225C207.006 151.891 207.911 151.263 208.581 150.418C209.091 152.186 209.469 153.99 209.711 155.815C209.711 155.9 209.711 155.947 209.711 155.947C209.698 156.682 209.587 157.413 209.38 158.119C209.111 158.973 208.619 159.777 207.727 159.873C207.355 159.911 205.527 159.47 202.791 158.724C201.998 158.508 201.126 158.265 200.196 158.002C201.656 157.906 203.686 157.084 205.266 153.687ZM228.161 91.9944C227.614 91.1173 226.473 90.5559 225.077 90.2255C224.823 90.0559 224.428 89.7869 223.925 89.4215C221.467 87.6233 216.56 83.5739 214.31 78.4017C214.937 78.2269 215.55 78.003 216.142 77.7321C217.061 77.3111 217.929 76.7862 218.728 76.1679C218.997 75.9574 219.261 75.7381 219.512 75.51C220.157 74.9289 220.745 74.2876 221.268 73.5949C221.476 73.3026 221.678 73.0248 221.853 72.7178C222.14 72.2677 222.4 71.8011 222.631 71.3202C223.164 70.1977 223.575 69.0215 223.857 67.8117C223.971 67.3263 224.071 66.8322 224.15 66.3351C224.229 65.8381 224.305 65.3381 224.361 64.8352C224.542 63.0608 224.612 61.2766 224.568 59.4935C224.568 59.4087 224.568 59.3209 224.568 59.2362C224.568 59.204 224.568 59.1718 224.568 59.1426C224.56 57.3349 224.364 55.533 223.983 53.7657C224.115 53.8154 224.246 53.8651 224.372 53.9236C224.584 54.0272 224.785 54.1495 224.975 54.2891C224.928 54.2218 224.876 54.1546 224.826 54.0873C225.674 54.637 226.306 55.4937 226.874 56.3474C229.474 60.3983 231.135 64.979 231.734 69.7542C232.334 74.5294 231.857 79.3781 230.338 83.9452C229.911 85.1995 229.399 86.448 229.285 87.7666C228.872 92.4768 233.381 96.0702 235.058 100.497C235.897 102.716 236.029 105.175 236.14 107.607C234.876 101.447 230.256 95.3831 228.17 92.0061L228.161 91.9944Z" fill="url(#paint0_linear)"/>
<path d="M116.319 185.135C116.319 185.135 116.1 188.79 114.71 189.959C114.71 189.959 111.857 206.479 109.224 209.476L108.785 211.157L97.8127 209.914L100.007 195.295L102.055 181.846L116.319 185.135Z" fill="#FFC1C8"/>
<path opacity="0.03" d="M116.319 185.135C116.319 185.135 116.1 188.79 114.71 189.959C114.71 189.959 111.857 206.479 109.224 209.476L108.785 211.157L97.8127 209.914L100.007 195.295L102.055 181.846L116.319 185.135Z" fill="black"/>
<path d="M104.495 209.68L109.224 209.473L108.972 216.911L105.353 219.335L98.8338 217.908L101.213 207.967L104.495 209.68Z" fill="#FF748F"/>
<path opacity="0.03" d="M104.495 209.68L109.224 209.473L108.972 216.911L105.353 219.335L98.8338 217.908L101.213 207.967L104.495 209.68Z" fill="black"/>
<path d="M105.353 216.341C105.353 216.341 109.066 215.247 110.827 216.674C112.588 218.101 116.872 221.905 117.729 222.381C118.587 222.858 130.948 225.188 126.867 228.182C122.785 231.176 112.305 230.322 112.305 230.322C112.305 230.322 105.449 228.322 105.259 228.229C105.069 228.135 100.87 226.089 100.739 225.945C100.607 225.802 101.926 216.297 101.926 216.297L105.353 216.341Z" fill="#5D618C"/>
<path opacity="0.03" d="M105.353 216.341C105.353 216.341 109.066 215.247 110.827 216.674C112.588 218.101 116.872 221.905 117.729 222.381C118.587 222.858 130.948 225.188 126.867 228.182C122.785 231.176 112.305 230.322 112.305 230.322C112.305 230.322 105.449 228.322 105.259 228.229C105.069 228.135 100.87 226.089 100.739 225.945C100.607 225.802 101.926 216.297 101.926 216.297L105.353 216.341Z" fill="black"/>
<path d="M94.5942 117.522L94.3748 131.112L93.8774 160.101L93.5848 160.356C84.8802 167.885 78.7359 159.917 78.7359 159.917C78.2736 160.464 77.2729 160.724 76.1962 160.835C75.0184 160.941 73.8336 160.941 72.6559 160.835L72.3633 160.809C72.3633 160.809 49.3891 132.574 47.9993 127.603C47.7236 126.763 47.7308 125.855 48.0198 125.019C48.4733 123.832 49.5588 123.124 50.5975 122.706C51.3595 122.405 52.1587 122.208 52.9734 122.121C52.9734 122.121 52.315 116.931 49.316 109.256C47.6307 104.944 47.7945 102.754 48.2597 101.655C48.6225 100.804 49.1697 100.623 49.1697 100.623C49.1697 100.623 50.0943 99.9413 51.5836 98.8682C52.8212 97.9648 54.4509 96.7836 56.265 95.4766L57.9474 94.272C64.1532 89.822 71.6318 84.5826 73.162 84.0387C73.2575 84.0039 73.3553 83.9755 73.4546 83.9539C76.5941 83.1967 87.1303 84.7697 87.1303 84.7697L94.5942 117.522Z" fill="#FF637C"/>
<path opacity="0.1" d="M94.5942 117.522L94.3747 131.112C83.9673 128.045 74.2914 107.722 73.0157 106.119C71.9244 104.728 73.045 89.2285 73.4575 83.9598C76.597 83.2025 87.1332 84.7755 87.1332 84.7755L94.5942 117.522Z" fill="black"/>
<path d="M214.044 91.0559C214.044 91.0559 205.925 95.2223 204.9 111.596C204.9 111.596 203.584 119.928 202.852 121.39C202.121 122.852 198.61 136.667 199.049 138.348C199.049 138.348 198.317 140.029 195.611 139.299C192.904 138.568 178.275 136.302 174.983 134.109L165.913 129.796C165.913 129.796 148.211 117.297 144.481 128.042C140.75 138.787 161.963 138.354 161.963 138.354L171.984 143.032L202.34 153.04C202.34 153.04 206.363 154.868 209.07 149.02C210.802 145.336 212.858 141.814 215.214 138.494C215.214 138.494 221.359 121.244 221.285 118.32C221.212 115.396 227.869 108.452 227.869 108.452C227.869 108.452 229.185 90.0325 218.36 90.398L214.044 91.0559Z" fill="#FFC1C7"/>
<path opacity="0.03" d="M214.044 91.0559C214.044 91.0559 205.925 95.2223 204.9 111.596C204.9 111.596 203.584 119.928 202.852 121.39C202.121 122.852 198.61 136.667 199.049 138.348C199.049 138.348 198.317 140.029 195.611 139.299C192.904 138.568 178.275 136.302 174.983 134.109L165.913 129.796C165.913 129.796 148.211 117.297 144.481 128.042C140.75 138.787 161.963 138.354 161.963 138.354L171.984 143.032L202.34 153.04C202.34 153.04 206.363 154.868 209.07 149.02C210.802 145.336 212.858 141.814 215.214 138.494C215.214 138.494 221.359 121.244 221.285 118.32C221.212 115.396 227.869 108.452 227.869 108.452C227.869 108.452 229.185 90.0325 218.36 90.398L214.044 91.0559Z" fill="black"/>
<path d="M128.169 105.277C128.608 105.789 130.656 106.844 130.656 106.844C130.656 106.844 137.385 114.847 140.092 116.893C142.798 118.94 151.649 126.761 149.859 129.723C148.068 132.685 146.055 132.024 146.055 132.024L130.217 121.06C130.217 121.06 124.658 117.078 123.525 115.177C122.393 113.277 121 109.297 121 109.297L128.169 105.277Z" fill="#FFC1C8"/>
<path opacity="0.03" d="M128.169 105.277C128.608 105.789 130.656 106.844 130.656 106.844C130.656 106.844 137.385 114.847 140.092 116.893C142.798 118.94 151.649 126.761 149.859 129.723C148.068 132.685 146.055 132.024 146.055 132.024L130.217 121.06C130.217 121.06 124.658 117.078 123.525 115.177C122.393 113.277 121 109.297 121 109.297L128.169 105.277Z" fill="black"/>
<path d="M119.283 91.6085L130.656 106.847L120.415 110.832L116.173 98.0759L119.283 91.6085Z" fill="#DCE6F2"/>
<path opacity="0.03" d="M119.283 91.6085L130.656 106.847L120.415 110.832L116.173 98.0759L119.283 91.6085Z" fill="black"/>
<path d="M122.244 130.46L124.292 133.457L126.048 178.337C126.048 178.337 126.194 182.577 124.95 183.819C123.707 185.062 113.539 184.258 113.539 184.258C113.539 184.258 113.905 138.5 114.051 137.623C114.198 136.746 122.244 130.46 122.244 130.46Z" fill="#575988"/>
<path opacity="0.1" d="M122.244 130.46L124.292 133.457L126.048 178.337C126.048 178.337 126.194 182.577 124.95 183.819C123.707 185.062 113.539 184.258 113.539 184.258C113.539 184.258 113.905 138.5 114.051 137.623C114.198 136.746 122.244 130.46 122.244 130.46Z" fill="black"/>
<path d="M108.548 187.193C107.882 188.83 107.1 190.417 106.207 191.942C106.207 191.942 104.305 202.786 103.495 203.786C102.91 204.517 102.64 209.973 102.544 212.817C102.509 213.847 102.494 214.534 102.494 214.534L91.3114 219.861L91.2616 212.82C91.2616 212.82 91.2616 212.788 91.2616 212.727C91.1914 211.174 90.3839 193.193 92.078 192.146C93.0728 191.529 94.0208 188.93 94.6615 186.799C95.1502 185.152 95.4574 183.775 95.4574 183.775C95.4574 183.775 107.881 182.968 108.916 184.299C109.297 184.772 109.034 185.924 108.548 187.193Z" fill="#FFC1C8"/>
<path opacity="0.1" d="M108.548 187.193C103.509 187.088 97.1953 186.875 94.644 186.784C95.1326 185.138 95.4398 183.761 95.4398 183.761C95.4398 183.761 107.863 182.954 108.899 184.284C109.297 184.772 109.034 185.924 108.548 187.193Z" fill="black"/>
<path d="M93.8627 120.665C93.8627 120.665 90.4248 138.939 91.0831 150.707C91.7415 162.475 90.5711 171.168 92.034 174.609C93.497 178.051 93.497 185.866 93.497 185.866C93.497 185.866 113.393 186.597 115.441 186.304C117.489 186.012 117.416 184.477 117.416 184.477C117.416 184.477 116.026 172.337 117.343 168.537C118.66 164.736 118.44 153.113 118.44 153.113L123.999 134.401C123.999 134.401 125.682 125.995 122.171 122.56C118.66 119.124 93.8627 120.665 93.8627 120.665Z" fill="#575988"/>
<path d="M211.923 217.224L211.045 218.51L205.617 226.58L201.009 227.969L197.571 224.606L197.738 222.387L198.595 210.864C198.595 210.864 177.324 198.359 175.422 196.02C173.52 193.681 166.205 191.561 166.205 191.561C166.205 191.561 155.014 186.372 150.845 177.308C146.675 168.244 157.794 166.855 157.794 166.855L199.561 206.771L211.923 217.224Z" fill="#FFC1C7"/>
<path opacity="0.1" d="M211.059 218.507L205.632 226.577L201.024 227.966L197.586 224.603L197.753 222.384L201.536 225.627L208.631 217.367L211.059 218.507Z" fill="black"/>
<path d="M217.043 221.902L203.803 234.255C203.803 234.255 196.196 235.717 189.393 234.693C185.045 234.038 185.882 231.656 187.026 230.015L187.047 229.986C187.732 229.048 188.734 228.389 189.867 228.132C195.497 226.776 197.439 222.703 197.439 222.703L201.536 226.211L208.631 217.949L213.877 220.411L217.043 221.902Z" fill="#575988"/>
<path d="M217.043 222.042L203.803 234.401C203.803 234.401 196.196 235.863 189.393 234.84C185.045 234.185 185.59 231.802 186.734 230.161C188.049 231.204 189.628 231.86 191.295 232.059C195.026 232.424 200.658 232.059 200.658 232.059L213.877 220.56L217.043 222.042Z" fill="white"/>
<path d="M107.737 73.9809C106.661 74.5188 106.166 76.1796 105.967 78.0742C105.631 81.3079 106.175 85.2024 106.175 85.2024C106.175 85.2024 91.5454 81.2056 93.1079 80.4249C94.0061 79.9776 94.483 76.7205 94.7259 74.0393C94.9073 72.057 94.9599 70.3875 94.9599 70.3875C94.9599 70.3875 110.663 72.519 107.737 73.9809Z" fill="#FFC1C8"/>
<path d="M224.188 91.7195C224.188 91.7195 206.437 108.482 207.022 103.611C207.104 102.932 206.87 101.994 206.407 100.886C204.766 96.9327 200.228 90.7956 196.679 86.3076C194.075 83.0154 191.997 80.6091 191.997 80.6091C191.997 80.6091 214.044 62.0927 212.288 72.6184C211.922 75.0184 212.257 77.473 213.251 79.6881C215.448 84.8574 220.317 88.9244 222.748 90.7196C223.626 91.3658 224.188 91.7195 224.188 91.7195Z" fill="#FFC1C7"/>
<path opacity="0.1" d="M209.851 75.8316C209.532 76.2263 208.35 77.6122 207.999 77.9777C204.663 81.4483 204.219 86.4567 199.025 86.4567C198.243 86.4573 197.461 86.4075 196.685 86.3076C194.08 83.0154 192.003 80.6091 192.003 80.6091C192.003 80.6091 214.044 62.0927 212.288 72.6184C211.873 75.1153 208.924 73.6446 209.851 75.8316Z" fill="black"/>
<path d="M217.359 67.5485C217.359 71.1728 216.284 74.7159 214.27 77.7296C212.255 80.7433 209.391 83.0923 206.041 84.4795C202.69 85.8668 199.003 86.2299 195.446 85.5229C191.889 84.816 188.621 83.0708 186.056 80.5081C183.492 77.9453 181.745 74.6801 181.038 71.1254C180.331 67.5708 180.694 63.8863 182.082 60.538C183.47 57.1897 185.821 54.328 188.837 52.3148C191.853 50.3016 195.398 49.2274 199.025 49.228C201.435 49.2187 203.824 49.6863 206.052 50.6037C208.281 51.5211 210.306 52.8702 212.01 54.5733C213.714 56.2763 215.064 58.2997 215.982 60.5266C216.9 62.7535 217.368 65.14 217.359 67.5485V67.5485Z" fill="#FFC1C7"/>
<path opacity="0.1" d="M224.188 91.7196C224.188 91.7196 206.437 108.482 207.022 103.611C207.104 102.932 206.87 101.994 206.407 100.886L208.973 94.8393C212.117 92.0873 216.149 90.5612 220.329 90.5413C221.089 90.5406 221.849 90.5923 222.602 90.6962L222.748 90.7196C223.626 91.3658 224.188 91.7196 224.188 91.7196Z" fill="black"/>
<path d="M245.058 214.519C245.058 214.519 232.477 234.594 232.477 236.155C232.477 236.155 218.237 230.6 213.166 229.431C208.096 228.261 203.315 217.639 203.315 217.639C203.315 217.639 189.856 204.967 184.589 203.213C180.121 201.725 158.651 171.46 152.255 162.329C151.472 161.212 151.065 159.875 151.092 158.511C151.119 157.147 151.58 155.827 152.407 154.742L152.527 154.587C154.22 152.459 156.461 150.833 159.01 149.884C161.559 148.935 164.319 148.699 166.993 149.201C167.586 149.311 168.172 149.455 168.748 149.634C177.959 152.479 193.911 157.368 201.957 159.575C204.649 160.315 206.448 160.745 206.814 160.718C207.692 160.628 208.175 159.841 208.441 158.979C208.644 158.277 208.753 157.551 208.766 156.821C208.766 156.821 208.766 156.774 208.766 156.689C208.519 154.83 208.132 152.993 207.607 151.193C206.668 147.976 205.041 144.202 202.34 142.398C200.099 140.904 198.317 137.609 197.384 133.778C196.129 128.606 196.418 122.452 199.218 118.423L201.925 112.043L206.451 101.371L208.973 95.424C212.117 92.6721 216.149 91.146 220.329 91.126C221.089 91.1253 221.849 91.1771 222.602 91.281C224.542 91.55 226.219 92.1318 226.918 93.278C229.063 96.7865 233.94 103.219 234.914 109.651C235.889 116.084 234.721 126.609 238.036 130.51C241.351 134.41 243.303 143.763 246.814 145.713C250.325 147.664 241.158 151.754 241.158 151.754L241.193 152.371L241.351 155.07C241.351 155.07 241.416 155.143 241.533 155.289C243.575 157.815 262.029 182.068 245.058 214.519Z" fill="#FF6584"/>
<path d="M241.547 155.289C237.703 156.093 229.294 157.844 225.543 158.613L224.884 158.748C224.665 158.792 224.419 158.832 224.153 158.87C220.384 159.388 212.209 159.134 208.467 158.982C208.67 158.28 208.78 157.554 208.792 156.824C208.792 156.824 208.792 156.777 208.792 156.692C211.639 156.508 218.386 155.97 224.167 154.783C224.639 154.686 225.104 154.584 225.557 154.491C226.213 154.339 226.851 154.178 227.459 154.008C232.644 152.546 238.118 152.353 241.211 152.383L241.369 155.081C241.369 155.081 241.416 155.143 241.547 155.289Z" fill="#575988"/>
<path d="M225.528 154.479V158.613L224.87 158.748C224.65 158.792 224.405 158.832 224.138 158.87V154.795C224.609 154.686 225.075 154.584 225.528 154.479Z" fill="#FF6584"/>
<path opacity="0.1" d="M229.112 162.397C229.112 162.397 221.285 180.305 216.531 182.059C211.776 183.813 199.926 190.026 199.926 190.026C199.926 190.026 206.729 196.02 213.824 189.442C220.92 182.863 231.16 165.32 229.112 162.397Z" fill="black"/>
<path opacity="0.1" d="M237.67 159.99C237.67 159.99 238.402 166.788 237.378 168.031C236.354 169.273 237.67 159.99 237.67 159.99Z" fill="black"/>
<path opacity="0.1" d="M241.913 164.443C241.913 164.443 245.863 205.815 226.26 206.034C226.26 206.04 244.62 187.834 241.913 164.443Z" fill="black"/>
<path opacity="0.1" d="M246.887 174.384C246.887 174.384 252.519 196.093 245.132 198.579C245.132 198.584 249.008 187.328 246.887 174.384Z" fill="black"/>
<path opacity="0.1" d="M211.849 168.829C211.484 168.829 196.635 171.387 199.853 173.434C203.072 175.481 211.849 168.829 211.849 168.829Z" fill="black"/>
<path opacity="0.1" d="M222.09 139.524C222.09 139.524 234.233 150.269 231.892 151.438Z" fill="black"/>
<path opacity="0.1" d="M221.066 142.959C221.066 142.959 228.088 151.584 227.284 152.096Z" fill="black"/>
<path opacity="0.1" d="M236.061 141.638C236.061 141.638 239.28 145.658 238.768 146.535Z" fill="black"/>
<path opacity="0.1" d="M239.28 139.524C239.28 139.524 243.888 143.099 242.864 144.494Z" fill="black"/>
<path d="M213.678 95.9591C213.678 95.9591 228.673 97.1286 228.015 109.189C227.357 121.25 216.165 124.32 216.165 124.32L201.609 120.153C201.609 120.153 208.119 96.7631 213.678 95.9591Z" fill="#FFC1C7"/>
<path opacity="0.1" d="M168.76 149.634C177.971 152.479 193.922 157.368 201.969 159.575C201.441 159.844 200.864 159.999 200.273 160.032C199.682 160.065 199.09 159.974 198.537 159.765L168.18 149.757L166.993 149.201C167.59 149.31 168.18 149.455 168.76 149.634Z" fill="black"/>
<path opacity="0.1" d="M220.13 119.823C218.705 121.724 217.45 123.77 217.496 125.051C217.52 125.972 216.911 128.32 216.098 131.1C214.003 138.084 211.158 144.82 207.613 151.193C206.674 147.976 205.047 144.202 202.346 142.398C200.105 140.904 198.323 137.609 197.39 133.778C198.101 131.007 198.777 128.676 199.055 128.121C199.786 126.659 201.103 118.326 201.103 118.326C201.226 116.214 201.503 114.115 201.931 112.043C202.993 106.976 204.798 103.564 206.457 101.371C208.458 98.7045 210.261 97.7865 210.261 97.7865L214.576 97.1286C219.55 96.9619 221.95 100.742 223.105 104.885C224.521 110.034 223.337 115.543 220.13 119.823Z" fill="black"/>
<path d="M209.362 96.6111C209.362 96.6111 201.243 100.777 200.219 117.151C200.219 117.151 198.902 125.484 198.171 126.945C197.439 128.407 193.928 142.222 194.367 143.904C194.367 143.904 193.636 145.585 190.929 144.854C188.223 144.123 173.593 141.857 170.302 139.664L161.231 135.351C161.231 135.351 143.53 122.852 139.799 133.597C136.069 144.342 157.282 143.909 157.282 143.909L167.303 148.587L197.659 158.596C197.659 158.596 201.682 160.423 204.388 154.575C205.064 153.113 205.787 151.725 206.492 150.462C210.144 143.962 213.069 137.081 215.214 129.942C216.042 127.162 216.636 124.814 216.613 123.893C216.581 122.612 217.839 120.563 219.246 118.665C222.465 114.385 223.635 108.876 222.201 103.725C221.046 99.5817 218.635 95.8012 213.672 95.9708L209.362 96.6111Z" fill="#FFC1C7"/>
<path opacity="0.1" d="M107.737 73.9809C106.661 74.5188 106.166 76.1796 105.967 78.0742C105.777 78.0742 105.587 78.0742 105.397 78.0742C101.463 78.0816 97.6643 76.6411 94.7259 74.0277C94.9073 72.0453 94.96 70.3758 94.96 70.3758C94.96 70.3758 110.663 72.519 107.737 73.9809Z" fill="black"/>
<path d="M121.489 61.4086C121.489 64.5891 120.545 67.6981 118.777 70.3426C117.009 72.9871 114.495 75.0482 111.555 76.2654C108.614 77.4825 105.379 77.8009 102.257 77.1805C99.1355 76.56 96.2681 75.0284 94.0175 72.7795C91.767 70.5305 90.2343 67.6652 89.6134 64.5458C88.9925 61.4264 89.3111 58.1931 90.5291 55.2547C91.7471 52.3163 93.8097 49.8048 96.4561 48.0378C99.1025 46.2708 102.214 45.3277 105.397 45.3277C109.662 45.3369 113.75 47.0341 116.765 50.0479C119.781 53.0616 121.48 57.1465 121.489 61.4086V61.4086Z" fill="#FFC1C8"/>
<path opacity="0.1" d="M126.925 124.387C126.925 124.387 118.513 127.75 115.88 128.919C113.247 130.089 98.1784 127.384 98.1784 127.384C98.1784 127.384 90.3516 123.437 91.01 119.49C91.6683 115.543 84.7193 102.611 84.7193 102.611C84.7193 102.611 84.4998 91.1348 87.572 88.9419C90.6442 86.7491 89.4739 82.1441 89.4739 82.1441C89.4739 82.1441 89.4885 81.9921 89.5353 81.7436C89.7255 80.767 90.4131 78.2818 92.6923 77.466C93.1538 77.342 93.6381 77.329 94.1056 77.428C96.2912 77.7584 99.8813 79.3841 102.851 80.884C105.309 82.1266 107.342 83.2815 107.808 83.5505L107.907 83.606C107.907 83.606 109.004 86.1643 110.321 85.3603C111.638 84.5563 118.221 88.2841 119.464 89.9653C120.708 91.6465 119.83 99.5407 119.611 101.514C119.391 103.488 120.854 109.335 122.463 112.692C124.073 116.048 126.925 124.387 126.925 124.387Z" fill="black"/>
<path d="M126.925 123.51C126.925 123.51 118.513 126.872 115.88 128.042C113.247 129.211 98.1784 126.507 98.1784 126.507C98.1784 126.507 90.3516 122.56 91.01 118.613C91.6683 114.666 84.7193 101.734 84.7193 101.734C84.7193 101.734 84.4998 90.2577 87.572 88.0648C90.6442 85.872 89.4739 81.267 89.4739 81.267C89.4739 81.267 89.4885 81.1149 89.5353 80.8664C89.7255 79.8899 90.4131 77.4046 92.6923 76.5889C93.1538 76.4649 93.6381 76.4519 94.1056 76.5509C96.2912 76.8813 99.8813 78.5069 102.851 80.0068C105.309 81.2494 107.342 82.4043 107.808 82.6733L107.907 82.7289C107.907 82.7289 109.004 85.2872 110.321 84.4832C111.638 83.6791 118.221 87.407 119.464 89.0881C120.708 90.7693 119.83 98.6636 119.611 100.637C119.391 102.611 120.854 108.458 122.463 111.815C124.073 115.171 126.925 123.51 126.925 123.51Z" fill="#DCE6F2"/>
<path d="M99.6911 112.283C99.6911 112.283 92.4729 123.978 91.3026 124.612L91.7414 128.706C91.7414 128.706 102.032 126.56 102.667 123.685C103.302 120.811 102.959 112.136 102.959 112.136L99.6911 112.283Z" fill="#575988"/>
<path opacity="0.2" d="M99.6911 112.283C99.6911 112.283 92.4729 123.978 91.3026 124.612L91.7414 128.706C91.7414 128.706 102.032 126.56 102.667 123.685C103.302 120.811 102.959 112.136 102.959 112.136L99.6911 112.283Z" fill="black"/>
<path opacity="0.1" d="M109.847 97.383C109.847 97.383 111.126 102.318 113.139 104C115.152 105.681 109.847 97.383 109.847 97.383Z" fill="black"/>
<path d="M97.3007 110.394C97.485 110.724 103.664 119.13 110.175 122.235C116.685 125.34 131.206 128.998 131.206 128.998C131.206 128.998 142.983 131.191 144.993 132.03C147.003 132.869 149.566 129.106 136.947 123.735C124.327 118.364 121.878 115.987 121.878 115.987C121.878 115.987 110.906 110.645 109.151 108.014C107.395 105.382 97.3007 110.394 97.3007 110.394Z" fill="#FFC1C8"/>
<path opacity="0.1" d="M101.909 151.286C102.128 151.14 107.395 145.512 108.053 147.924C108.712 150.336 101.909 151.286 101.909 151.286Z" fill="black"/>
<path opacity="0.1" d="M104.981 140.176C104.908 140.395 104.177 146.608 102.055 147.339Z" fill="black"/>
<path opacity="0.1" d="M107.176 141.863C107.176 141.863 105.274 148.514 102.86 148.947Z" fill="black"/>
<path opacity="0.1" d="M97.5201 161.812C97.5201 161.812 100.739 161.885 101.177 159.838Z" fill="black"/>
<path opacity="0.1" d="M101.909 175.121C102.348 175.194 109.224 179.58 107.468 180.457C105.713 181.334 101.909 175.121 101.909 175.121Z" fill="black"/>
<path opacity="0.1" d="M102.532 212.142V212.817C102.497 213.847 102.482 214.534 102.482 214.534L91.2996 219.861L91.2499 212.82C91.2499 212.82 91.2499 212.788 91.2499 212.727V212.25L95.7265 212.394L102.532 212.142Z" fill="black"/>
<path d="M104.624 222.378L95.2964 225.945L91.1095 223.472L91.1534 220.086L91.2499 212.817L95.7265 212.961L102.532 212.724V217.814L104.624 222.378Z" fill="#FF748F"/>
<path opacity="0.1" d="M104.615 222.381L95.2876 225.948L91.1007 223.475L91.1446 220.089C91.752 220.885 92.5284 221.536 93.4178 221.996C94.3071 222.456 95.2875 222.713 96.2883 222.75C96.2883 222.75 99.5711 218.656 101.57 217.469C101.711 217.384 101.869 217.329 102.033 217.307C102.197 217.285 102.364 217.296 102.523 217.341V217.817L104.615 222.381Z" fill="black"/>
<path d="M96.2971 223.331C96.2971 223.331 92.4934 223.381 90.5857 219.764C90.5857 219.764 87.8734 222.381 87.8237 227.898C87.7739 233.416 87.8734 233.606 87.8734 233.606C87.8734 233.606 98.8192 233.179 100.867 233.939C102.915 234.699 120.096 233.272 120.096 233.272C120.096 233.272 121.237 230.275 116.05 229.229C110.862 228.182 106.579 222.665 106.435 222.428C106.292 222.191 103.58 216.873 101.581 218.042C99.5829 219.212 96.2971 223.331 96.2971 223.331Z" fill="#5D618C"/>
<path opacity="0.1" d="M106.386 43.6435L105.294 43.4944L105.976 43.4769L106.386 43.6435Z" fill="black"/>
<path opacity="0.1" d="M121.489 61.4085C121.49 62.6558 121.345 63.899 121.059 65.113C120.815 65.05 120.581 64.9515 120.365 64.8206C120.052 64.6189 119.739 64.3411 119.371 64.3733C119.155 64.4072 118.952 64.5003 118.786 64.6423C117.053 65.9083 115.766 67.99 113.659 68.3935C113.87 67.7773 113.899 67.1133 113.741 66.4813C113.295 66.9303 112.746 67.2655 112.143 67.4588C111.54 67.6522 110.899 67.6979 110.274 67.5924C110.426 67.2273 110.444 66.8201 110.324 66.4433C108.84 67.2735 107.296 67.99 105.704 68.5865C105.648 68.2941 105.596 68.0251 105.54 67.7444C103.299 68.8379 103.474 72.5482 101.233 73.6417C99.8989 74.2937 98.0146 73.8259 97.0929 75.0013C97.0578 75.0481 97.0256 75.0948 96.9934 75.1445C94.5986 73.6807 92.6287 71.6162 91.2793 69.1562C89.9299 66.6962 89.248 63.9262 89.3012 61.1214C89.3545 58.3166 90.1412 55.5744 91.583 53.1674C93.0249 50.7603 95.0718 48.7721 97.5206 47.4001C99.9693 46.0281 102.735 45.3201 105.542 45.3464C108.349 45.3728 111.1 46.1325 113.523 47.5501C115.946 48.9678 117.955 50.9941 119.351 53.4278C120.748 55.8614 121.483 58.6178 121.483 61.4231L121.489 61.4085Z" fill="black"/>
<path d="M106.386 43.0559C105.034 42.4974 103.662 41.936 102.207 41.7694C100.753 41.6027 99.1849 41.8863 98.0877 42.8541C97.2099 43.626 96.5224 44.8657 95.352 44.9008C94.7814 44.9212 94.2548 44.6347 93.7428 44.3862C92.2798 43.6845 90.4511 43.2868 89.1315 44.2166C88.0782 44.9622 87.6832 46.3305 87.5106 47.6082C87.338 48.8859 87.297 50.2396 86.6884 51.3653C86.311 52.067 85.7375 52.6401 85.2635 53.2804C84.0587 54.9073 83.4925 56.919 83.6718 58.935C83.794 59.9319 84.0075 60.9155 84.3097 61.8734L85.5034 66.0866C86.1091 68.2268 86.7265 70.3963 87.8793 72.2997C89.0321 74.2031 90.8052 75.8404 92.9703 76.3316C94.2753 76.624 95.8553 76.3842 96.5867 75.2644C96.774 74.972 96.8939 74.6592 97.0988 74.3873C98.0058 73.2178 99.9047 73.6826 101.239 73.0306C103.48 71.9371 103.305 68.2268 105.546 67.1333L105.713 67.9725C107.303 67.3752 108.846 66.6598 110.33 65.8322C110.449 66.2089 110.433 66.6156 110.283 66.9813C110.907 67.0854 111.547 67.0389 112.15 66.8456C112.752 66.6524 113.3 66.3179 113.747 65.8702C113.905 66.5022 113.876 67.1662 113.665 67.7824C115.772 67.376 117.059 65.2943 118.791 64.0283C118.959 63.8884 119.161 63.7965 119.377 63.7622C119.748 63.73 120.058 64.0078 120.371 64.2066C120.914 64.5356 121.551 64.6711 122.181 64.5909C122.81 64.5107 123.393 64.2196 123.836 63.7651C124.757 62.7652 124.798 61.2273 124.503 59.8999C124.207 58.5725 123.625 57.3064 123.499 55.9527C123.315 54.1078 123.958 52.181 123.367 50.4267C122.867 48.9385 121.556 47.8597 120.149 47.1521C118.742 46.4445 117.223 46.0323 115.786 45.3978C114.423 44.7867 113.153 43.9681 111.737 43.4857C109.689 42.7869 107.462 42.8424 105.3 42.9009" fill="#794F6A"/>
<path d="M106.664 97.5175C106.664 97.5175 109.004 81.7786 88.9619 82.5564L78.8675 83.8984C78.8675 83.8984 88.4966 85.6293 90.8139 85.8837L91.0597 85.9187C93.2044 86.3105 100.619 85.8223 106.664 97.5175Z" fill="#FF637C"/>
<path opacity="0.1" d="M93.8627 160.283V160.101C102.082 152.999 93.8627 160.283 93.8627 160.283Z" fill="black"/>
<path d="M76.1815 160.835C75.0038 160.941 73.819 160.941 72.6412 160.835L48.0198 125.025C48.4733 123.837 49.5588 123.13 50.5975 122.712L76.1815 160.835Z" fill="#575988"/>
<path d="M60.2149 122.493L59.0446 123.881C59.0446 123.881 50.1674 109.145 48.2597 101.66C48.6225 100.81 49.1697 100.628 49.1697 100.628C49.1697 100.628 50.0943 99.9471 51.5836 98.8741C52.1365 102.394 54.0237 111.002 60.2149 122.493Z" fill="#575988"/>
<path d="M66.7251 117.955L64.3844 119.271C57.9942 111.797 57.45 99.2425 57.5085 94.2399L59.1938 93.0294C59.422 99.5992 66.7251 117.955 66.7251 117.955Z" fill="#575988"/>
<path opacity="0.1" d="M72.8694 116.645C72.7963 117.595 70.0898 127.244 74.0398 128.852C77.9898 130.46 72.8694 116.645 72.8694 116.645Z" fill="black"/>
<path opacity="0.1" d="M81.3545 133.237C81.5008 133.749 82.8175 150.415 85.6702 149.099C88.523 147.783 86.9869 128.779 86.9869 128.779L81.3545 133.237Z" fill="black"/>
<path opacity="0.1" d="M217.359 67.5485C217.365 72.2809 215.531 76.8306 212.244 80.2378C210.906 80.5212 209.525 80.545 208.177 80.308C207.489 80.2208 206.834 79.958 206.276 79.5449C205.738 79.0495 205.318 78.4414 205.044 77.7643C203.976 75.4691 203.429 72.8172 201.931 70.8524C200.433 68.8876 197.393 68.0251 195.947 70.0396C195.16 71.1331 195.028 72.8143 193.978 73.5715C192.717 74.4838 191.052 73.4107 190.072 72.1096C187.175 68.3087 188.167 60.8355 182.643 59.7858L182.421 59.7478C184.192 55.9734 187.199 52.9154 190.944 51.0787C194.689 49.242 198.949 48.7365 203.021 49.6456C207.092 50.5546 210.732 52.8239 213.339 56.0788C215.945 59.3337 217.364 63.3796 217.359 67.5485V67.5485Z" fill="black"/>
<path d="M182.936 59.5139C182.04 59.3414 181.002 59.3648 180.402 58.5929C180.048 58.1368 179.945 57.5053 179.861 56.9059C179.501 54.3154 179.305 51.5349 180.338 49.1871C182.032 45.3364 186.391 44.05 190.18 44.3365C193.969 44.623 197.688 46.0352 201.477 45.7984C204.263 45.6171 207.01 44.5412 209.787 44.8482C211.984 45.0938 214.032 46.1843 216.007 47.2983C217.856 48.3392 219.746 49.459 221.057 51.2659C222.982 53.9119 223.345 57.5667 223.398 60.9963C223.462 65.0224 223.179 69.2034 221.487 72.747C219.035 77.89 213.567 80.9512 208.47 80.0302C207.781 79.943 207.126 79.6802 206.568 79.2671C206.033 78.7709 205.613 78.163 205.339 77.4865C204.268 75.1884 203.721 72.5394 202.223 70.5717C200.725 68.604 197.685 67.7473 196.24 69.7618C195.453 70.8524 195.321 72.5365 194.271 73.2938C193.01 74.2031 191.345 73.1301 190.365 71.8319C187.468 68.028 188.46 60.5606 182.936 59.5139Z" fill="#945B79"/>
<path d="M227.462 51.0144C230.25 52.3448 232.184 54.9353 234.001 57.4293C235.514 59.5022 237.079 61.7185 237.278 64.2739C237.357 65.3206 237.202 66.3848 237.401 67.414C238.101 71.0483 242.668 72.6769 244.002 76.1386C244.622 77.7701 244.426 79.5858 244.154 81.3108C243.763 83.8062 243.237 86.2785 242.577 88.7168C242.182 90.1787 241.735 91.6991 242.036 93.1844C242.267 94.3364 242.914 95.348 243.429 96.4006C244.772 99.2396 245.003 102.459 245.105 105.596C245.208 108.733 245.205 111.926 246.144 114.92C247.083 117.914 249.155 120.744 252.142 121.712C251.139 122.395 249.976 122.808 248.765 122.911C248.587 123.89 249.146 124.887 249.936 125.507C250.726 126.127 251.691 126.448 252.634 126.755C251.991 127.209 251.251 127.507 250.473 127.627C249.696 127.746 248.901 127.684 248.151 127.445C246.902 127.036 245.869 126.159 244.871 125.299L239.262 120.478C238.513 119.872 237.82 119.199 237.194 118.466C233.565 113.961 235.731 107.134 233.706 101.722C232.056 97.3216 227.62 93.7487 228.027 89.0677C228.138 87.7578 228.641 86.5181 229.063 85.2667C230.557 80.7266 231.026 75.9121 230.437 71.1692C229.848 66.4262 228.214 61.8726 225.654 57.8357C225.013 56.8416 224.27 55.8416 223.202 55.33C221.578 54.5552 219.258 54.8885 218.336 53.3418C217.848 52.526 217.751 51.0905 217.707 50.1753C220.686 49.4941 224.677 49.6841 227.462 51.0144Z" fill="#945B79"/>
<path opacity="0.1" d="M84.9739 100.517C86.3432 91.5237 97.5932 88.2753 103.565 95.1492C105.291 97.1432 106.822 99.3273 107.688 101.511C110.613 108.894 110.833 109.552 110.833 109.552C110.833 109.552 92.7655 113.06 92.9118 115.692L84.7193 102.608C84.7193 102.608 84.7807 101.789 84.9739 100.517Z" fill="black"/>
<path d="M84.9739 99.6401C86.3432 90.6465 97.5932 87.3982 103.565 94.272C105.291 96.2661 106.822 98.4501 107.688 100.634C110.613 108.017 110.833 108.675 110.833 108.675C110.833 108.675 92.7655 112.183 92.9118 114.815L84.7193 101.731C84.7193 101.731 84.7807 100.912 84.9739 99.6401Z" fill="#DCE6F2"/>
<path opacity="0.1" d="M90.0591 88.0999C90.2785 88.4654 98.9099 98.991 103.445 100.491C107.98 101.991 90.0591 88.0999 90.0591 88.0999Z" fill="black"/>
<path opacity="0.1" d="M52.9733 122.127C52.9733 122.127 75.7953 149.026 78.7212 159.917Z" fill="black"/>
<path opacity="0.1" d="M53.8511 97.2748C53.8511 97.2748 58.8251 123.004 68.4806 133.822C78.136 144.64 88.0841 163.06 88.0841 163.06" stroke="black" stroke-width="2" stroke-miterlimit="10"/>
<g opacity="0.1">
<path opacity="0.1" d="M124.368 59.8414C124.388 60.6966 124.092 61.5291 123.537 62.1804C123.095 62.6349 122.511 62.926 121.882 63.0062C121.253 63.0864 120.615 62.9509 120.073 62.6219C119.76 62.4231 119.45 62.1454 119.078 62.1775C118.863 62.2118 118.66 62.3037 118.493 62.4436C116.846 63.6482 115.599 65.5896 113.665 66.1246C113.734 66.6412 113.682 67.1666 113.513 67.6596C115.62 67.2532 116.907 65.1715 118.639 63.9055C118.807 63.7656 119.009 63.6737 119.224 63.6394C119.596 63.6073 119.906 63.885 120.219 64.0838C120.761 64.4128 121.399 64.5483 122.029 64.4681C122.658 64.3879 123.241 64.0968 123.683 63.6423C124.588 62.6482 124.643 61.1513 124.368 59.8414Z" fill="black"/>
<path opacity="0.1" d="M123.201 54.3563C123.224 54.5961 123.265 54.8329 123.312 55.0698C123.312 53.6079 123.66 52.0875 123.312 50.6841C123.318 51.877 123.078 53.14 123.201 54.3563Z" fill="black"/>
<path opacity="0.1" d="M113.455 64.2739C113.007 64.7216 112.46 65.056 111.857 65.2493C111.255 65.4425 110.615 65.489 109.99 65.3849C110.14 65.0192 110.157 64.6125 110.037 64.2359C108.554 65.0634 107.01 65.7788 105.42 66.3761L105.253 65.537C103.012 66.6305 103.188 70.3408 100.946 71.4343C99.6121 72.0863 97.7278 71.6155 96.8062 72.7909C96.6014 73.057 96.4814 73.3757 96.2941 73.668C95.5627 74.7879 93.9827 75.0305 92.6777 74.7352C90.5067 74.244 88.7365 72.6067 87.5867 70.7033C86.4368 68.7999 85.8165 66.6305 85.2108 64.4902L84.0171 60.277C83.821 59.5753 83.6221 58.8736 83.4933 58.1573C83.4933 58.3736 83.4934 58.5871 83.5255 58.8005C83.6477 59.7974 83.8612 60.781 84.1634 61.7389L85.3571 65.9521C85.9628 68.0924 86.5802 70.2618 87.733 72.1652C88.8858 74.0686 90.6589 75.7059 92.824 76.1971C94.129 76.4895 95.709 76.2498 96.4404 75.1299C96.6277 74.8376 96.7477 74.5247 96.9525 74.2528C97.8595 73.0833 99.7584 73.5482 101.093 72.8962C103.334 71.8027 103.158 68.0924 105.4 66.9989L105.566 67.838C107.154 67.2403 108.694 66.5249 110.175 65.6978C110.294 66.0744 110.278 66.4811 110.128 66.8468C110.721 66.945 111.33 66.907 111.906 66.7358C112.483 66.5646 113.014 66.2647 113.457 65.8586C113.582 65.3376 113.581 64.7944 113.455 64.2739V64.2739Z" fill="black"/>
</g>
<path opacity="0.1" d="M107.808 83.5505C106.233 84.4568 102.576 86.4743 101.836 86.1293C101.046 85.7638 92.4261 82.7494 89.547 81.7436C89.7372 80.767 90.4248 78.2818 92.7041 77.466C93.1655 77.342 93.6498 77.329 94.1173 77.428L102.86 80.884C105.309 82.1266 107.342 83.2815 107.808 83.5505Z" fill="black"/>
<path d="M107.808 82.6733C106.233 83.5797 102.576 85.5971 101.836 85.2521C101.046 84.8867 92.4261 81.8722 89.547 80.8664C89.7372 79.8899 90.4248 77.4046 92.7041 76.5889C93.1655 76.4649 93.6498 76.4519 94.1173 76.5509L102.86 80.0068C105.309 81.2494 107.342 82.4043 107.808 82.6733Z" fill="#DCE6F2"/>
<path opacity="0.1" d="M223.407 60.6484C223.322 63.9435 222.874 67.2386 221.502 70.1185C219.05 75.2615 213.582 78.3227 208.485 77.4017C207.796 77.3145 207.141 77.0517 206.583 76.6386C206.047 76.1424 205.628 75.5345 205.354 74.858C204.283 72.5599 203.736 69.911 202.238 67.9432C200.74 65.9755 197.7 65.1188 196.254 67.1333C195.467 68.2239 195.336 69.908 194.285 70.6653C193.024 71.5746 191.359 70.5016 190.379 69.2034C187.483 65.4025 188.474 57.9263 182.95 56.8796C182.055 56.7071 181.016 56.7305 180.417 55.9586C180.063 55.5025 179.96 54.8709 179.875 54.2716C179.776 53.5669 179.691 52.8477 179.641 52.1255C179.539 53.7217 179.618 55.3243 179.875 56.903C179.96 57.5024 180.063 58.1339 180.417 58.59C181.016 59.3619 182.055 59.3385 182.95 59.511C188.474 60.5577 187.483 68.0251 190.379 71.8348C191.357 73.1184 193.013 74.1914 194.285 73.2967C195.336 72.5395 195.456 70.8553 196.254 69.7648C197.7 67.7503 200.74 68.6099 202.238 70.5747C203.736 72.5395 204.286 75.1913 205.354 77.4894C205.628 78.1659 206.047 78.7738 206.583 79.27C207.141 79.6832 207.796 79.9459 208.485 80.0331C213.582 80.9541 219.05 77.8929 221.502 72.75C223.193 69.2063 223.477 65.0253 223.413 60.9992C223.407 60.8706 223.407 60.7536 223.407 60.6484Z" fill="black"/>
<g opacity="0.1">
<path opacity="0.1" d="M242.539 74.6826C243.159 76.3141 242.963 78.1297 242.691 79.8548C242.3 82.3482 241.773 84.8185 241.114 87.2549C240.719 88.7168 240.272 90.2372 240.573 91.7225C240.804 92.8745 241.451 93.8861 241.966 94.9387C243.309 97.7777 243.54 100.997 243.642 104.134C243.745 107.271 243.742 110.464 244.681 113.458C245.289 115.498 246.452 117.33 248.04 118.75C247.201 117.627 246.56 116.369 246.144 115.031C245.205 112.037 245.205 108.844 245.105 105.707C245.006 102.57 244.772 99.3507 243.429 96.5146C242.925 95.4532 242.258 94.4416 242.036 93.2984C241.743 91.8131 242.182 90.2898 242.577 88.8279C243.237 86.3848 243.764 83.9076 244.154 81.4073C244.426 79.6823 244.622 77.8637 244.002 76.2322C243.502 74.9253 242.539 73.8932 241.495 72.8903C241.932 73.4311 242.284 74.0355 242.539 74.6826V74.6826Z" fill="black"/>
<path opacity="0.1" d="M252.142 121.829C251.36 121.57 250.625 121.187 249.965 120.694C249.137 121.125 248.232 121.387 247.303 121.466C247.124 122.446 247.683 123.443 248.473 124.063C248.63 124.189 248.796 124.303 248.97 124.405C248.767 123.976 248.698 123.496 248.774 123.028C249.981 122.921 251.14 122.509 252.142 121.829V121.829Z" fill="black"/>
<path opacity="0.1" d="M221.73 53.8915C220.615 53.3593 219.173 53.3476 218.079 52.8944C218.141 53.0976 218.224 53.2936 218.327 53.4792C219.249 55.023 221.569 54.6896 223.193 55.4674C223.398 55.5702 223.594 55.6905 223.778 55.827C223.271 55.0188 222.566 54.3527 221.73 53.8915V53.8915Z" fill="black"/>
<path opacity="0.1" d="M250.217 125.849C249.096 126.327 247.84 126.386 246.679 126.016C245.43 125.606 244.397 124.729 243.399 123.87L237.79 119.048C237.524 118.82 237.261 118.589 237.003 118.355C237.062 118.434 237.12 118.516 237.185 118.595C237.811 119.328 238.503 120.001 239.253 120.607L244.862 125.431C245.86 126.288 246.893 127.168 248.142 127.577C248.892 127.816 249.687 127.877 250.465 127.757C251.243 127.637 251.982 127.338 252.625 126.884C251.778 126.652 250.967 126.304 250.217 125.849Z" fill="black"/>
<path opacity="0.1" d="M232.538 55.9703C234.051 58.0432 235.617 60.2595 235.815 62.8149C235.894 63.8616 235.739 64.9259 235.938 65.955C236.254 67.6011 237.369 68.8379 238.616 70.0162C238.013 69.2941 237.596 68.436 237.401 67.5163C237.202 66.4842 237.357 65.42 237.278 64.3733C237.079 61.8179 235.523 59.6016 234.001 57.5316C232.901 56.02 231.754 54.4762 230.406 53.1956C231.157 54.0844 231.857 55.0317 232.538 55.9703Z" fill="black"/>
</g>
<path opacity="0.1" d="M219.703 49.9092C219.703 49.9092 217.947 52.833 222.921 55.2686L223.214 54.4879L219.703 49.9092Z" fill="black"/>
<path d="M219.41 49.9092C219.41 49.9092 217.654 52.833 222.628 55.2686L222.921 54.4879L219.41 49.9092Z" fill="#FF6584"/>
<path d="M288.669 215.393C288.669 215.393 290.278 217.496 287.929 220.656C285.579 223.817 283.642 226.504 284.418 228.483C284.418 228.483 287.964 222.592 290.855 222.51C293.745 222.428 291.844 218.937 288.669 215.393Z" fill="#FF637C"/>
<path opacity="0.1" d="M288.669 215.393C288.809 215.596 288.921 215.818 289 216.051C291.814 219.358 293.312 222.443 290.606 222.519C288.087 222.592 285.064 227.094 284.339 228.232C284.362 228.319 284.391 228.404 284.423 228.492C284.423 228.492 287.97 222.6 290.86 222.519C293.751 222.437 291.843 218.937 288.669 215.393Z" fill="black"/>
<path d="M291.659 218.072C291.659 218.811 291.574 219.411 291.472 219.411C291.369 219.411 291.288 218.826 291.288 218.072C291.288 217.317 291.39 217.68 291.492 217.68C291.595 217.68 291.659 217.332 291.659 218.072Z" fill="#FFD037"/>
<path d="M292.683 218.955C292.034 219.308 291.466 219.522 291.419 219.431C291.372 219.34 291.855 218.981 292.505 218.627C293.154 218.273 292.9 218.531 292.949 218.627C292.999 218.724 293.336 218.601 292.683 218.955Z" fill="#FFD037"/>
<path d="M280.169 215.393C280.169 215.393 278.56 217.496 280.909 220.656C283.259 223.817 285.196 226.504 284.42 228.483C284.42 228.483 280.877 222.592 277.983 222.51C275.09 222.428 277.006 218.937 280.169 215.393Z" fill="#FF637C"/>
<path opacity="0.1" d="M280.169 215.393C280.029 215.596 279.917 215.818 279.838 216.051C277.024 219.358 275.526 222.443 278.232 222.519C280.751 222.592 283.774 227.094 284.499 228.232C284.475 228.32 284.446 228.407 284.412 228.492C284.412 228.492 280.868 222.6 277.975 222.519C275.081 222.437 277.006 218.937 280.169 215.393Z" fill="black"/>
<path d="M277.191 218.072C277.191 218.811 277.275 219.411 277.378 219.411C277.48 219.411 277.562 218.826 277.562 218.072C277.562 217.317 277.46 217.68 277.357 217.68C277.255 217.68 277.191 217.332 277.191 218.072Z" fill="#FFD037"/>
<path d="M276.166 218.955C276.816 219.308 277.381 219.522 277.43 219.431C277.48 219.34 276.994 218.981 276.345 218.627C275.695 218.273 275.95 218.531 275.9 218.627C275.85 218.724 275.517 218.601 276.166 218.955Z" fill="#FFD037"/>
<path d="M277.703 228.217C277.703 228.217 282.197 228.077 283.554 227.115C284.912 226.153 290.468 224.998 290.805 226.53C291.141 228.062 297.558 234.217 292.484 234.258C287.411 234.299 280.696 233.468 279.344 232.647C277.992 231.825 277.703 228.217 277.703 228.217Z" fill="#A8A8A8"/>
<path opacity="0.2" d="M292.572 233.737C287.499 233.778 280.784 232.948 279.432 232.126C278.402 231.498 277.992 229.249 277.855 228.214H277.703C277.703 228.214 277.995 231.837 279.341 232.661C280.687 233.486 287.408 234.313 292.481 234.272C293.944 234.272 294.45 233.74 294.424 232.968C294.213 233.445 293.66 233.737 292.572 233.737Z" fill="black"/>
<path d="M76.8457 223.062C77.3829 222.626 77.7747 222.037 77.9693 221.372C78.1126 220.7 77.8259 219.893 77.1851 219.647C76.4654 219.373 75.6958 219.873 75.1136 220.375C74.5313 220.878 73.8613 221.454 73.0976 221.346C73.4904 220.991 73.7842 220.54 73.9503 220.037C74.1165 219.534 74.1493 218.997 74.0456 218.478C74.0123 218.263 73.9213 218.061 73.7823 217.893C73.3844 217.466 72.6588 217.65 72.1789 217.987C70.6575 219.054 70.2332 221.121 70.2273 222.978C70.0723 222.308 70.201 221.609 70.1981 220.931C70.1952 220.253 70.005 219.469 69.4257 219.112C69.0678 218.914 68.6643 218.814 68.2553 218.82C67.5706 218.794 66.8099 218.864 66.3418 219.364C65.7566 219.984 65.9117 221.027 66.4178 221.703C66.924 222.378 67.6906 222.817 68.3957 223.288C68.9632 223.625 69.4473 224.085 69.8119 224.635C69.8545 224.713 69.8898 224.794 69.9172 224.878H74.1861C75.1507 224.396 76.0454 223.785 76.8457 223.062V223.062Z" fill="#FF637C"/>
<path d="M42.7795 227.673C42.7795 227.673 38.6833 213.727 43.549 203.458C45.6235 199.165 46.2498 194.316 45.3338 189.638C44.8792 187.42 44.2231 185.248 43.3735 183.15" stroke="#535461" stroke-width="2" stroke-miterlimit="10"/>
<path d="M46.4135 176.662C46.4135 178.369 43.315 183.328 43.315 183.328C43.315 183.328 40.2164 178.358 40.2164 176.662C40.2164 175.841 40.5429 175.053 41.124 174.472C41.7051 173.892 42.4932 173.565 43.315 173.565C44.1367 173.565 44.9249 173.892 45.5059 174.472C46.087 175.053 46.4135 175.841 46.4135 176.662V176.662Z" fill="#FF637C"/>
<path d="M51.5338 186.129C50.6034 187.565 45.3075 190.044 45.3075 190.044C45.3075 190.044 45.4011 184.196 46.3316 182.767C46.7862 182.097 47.4854 181.631 48.2793 181.47C49.0731 181.309 49.8985 181.465 50.5787 181.905C51.2589 182.344 51.7398 183.033 51.9183 183.822C52.0968 184.612 51.9588 185.44 51.5338 186.129V186.129Z" fill="#FF637C"/>
<path d="M51.3085 202.312C49.7812 203.081 43.9557 202.549 43.9557 202.549C43.9557 202.549 46.9928 197.555 48.5201 196.783C48.8844 196.591 49.2835 196.472 49.694 196.436C50.1045 196.399 50.5183 196.444 50.911 196.569C51.3037 196.694 51.6675 196.897 51.9811 197.164C52.2947 197.431 52.5518 197.758 52.7373 198.126C52.9228 198.494 53.033 198.895 53.0614 199.306C53.0898 199.717 53.036 200.129 52.9029 200.519C52.7699 200.909 52.5603 201.268 52.2865 201.576C52.0128 201.884 51.6803 202.134 51.3085 202.312Z" fill="#FF637C"/>
<path d="M48.3797 214.516C47.0045 215.534 41.1732 215.978 41.1732 215.978C41.1732 215.978 43.3208 210.543 44.6843 209.525C45.0089 209.259 45.3842 209.062 45.7874 208.946C46.1906 208.829 46.6133 208.796 47.0298 208.847C47.4464 208.899 47.8481 209.034 48.2106 209.246C48.5731 209.457 48.8888 209.74 49.1386 210.077C49.3884 210.414 49.5671 210.798 49.6637 211.207C49.7604 211.615 49.7731 212.038 49.7011 212.451C49.629 212.865 49.4737 213.259 49.2445 213.61C49.0154 213.962 48.7172 214.263 48.368 214.496L48.3797 214.516Z" fill="#FF637C"/>
<path d="M38.8032 190.374C40.0292 191.567 45.7464 192.801 45.7464 192.801C45.7464 192.801 44.3449 187.126 43.1131 185.933C42.8238 185.638 42.4783 185.403 42.097 185.243C41.7156 185.083 41.306 185.001 40.8924 185.002C40.4789 185.003 40.0696 185.087 39.6889 185.248C39.3081 185.409 38.9635 185.645 38.6754 185.942C38.3873 186.238 38.1615 186.589 38.0113 186.974C37.8611 187.359 37.7896 187.771 37.801 188.184C37.8123 188.597 37.9064 189.003 38.0775 189.38C38.2486 189.756 38.4934 190.094 38.7974 190.374H38.8032Z" fill="#FF637C"/>
<path d="M35.5643 204.692C37.0916 205.461 42.917 204.932 42.917 204.932C42.917 204.932 39.8829 199.935 38.3526 199.166C37.9895 198.983 37.5939 198.874 37.1884 198.843C36.7829 198.813 36.3754 198.863 35.9892 198.99C35.603 199.118 35.2456 199.32 34.9375 199.585C34.6294 199.85 34.3766 200.173 34.1935 200.536C34.0104 200.899 33.9006 201.294 33.8704 201.699C33.8402 202.105 33.8902 202.512 34.0175 202.898C34.1448 203.284 34.3469 203.641 34.6123 203.949C34.8777 204.257 35.2012 204.509 35.5643 204.692V204.692Z" fill="#FF637C"/>
<path d="M34.3178 219.042C35.693 220.057 41.5243 220.504 41.5243 220.504C41.5243 220.504 39.3767 215.066 38.0132 214.048C37.3515 213.607 36.5454 213.437 35.7618 213.574C34.9782 213.71 34.2772 214.143 33.8038 214.781C33.3304 215.42 33.121 216.216 33.2188 217.005C33.3167 217.794 33.7144 218.515 34.3295 219.019L34.3178 219.042Z" fill="#FF637C"/>
<path d="M46.4135 176.662C46.4135 178.369 43.315 183.328 43.315 183.328C43.315 183.328 40.2164 178.358 40.2164 176.662C40.2164 175.841 40.5429 175.053 41.124 174.472C41.7051 173.892 42.4932 173.565 43.315 173.565C44.1367 173.565 44.9249 173.892 45.5059 174.472C46.087 175.053 46.4135 175.841 46.4135 176.662V176.662Z" fill="#FF637C"/>
<path d="M51.5338 186.129C50.6034 187.565 45.3075 190.044 45.3075 190.044C45.3075 190.044 45.4011 184.196 46.3316 182.767C46.7862 182.097 47.4854 181.631 48.2793 181.47C49.0731 181.309 49.8985 181.465 50.5787 181.905C51.2589 182.344 51.7398 183.033 51.9183 183.822C52.0968 184.612 51.9588 185.44 51.5338 186.129V186.129Z" fill="#FF637C"/>
<path d="M51.3085 202.312C49.7812 203.081 43.9557 202.549 43.9557 202.549C43.9557 202.549 46.9928 197.555 48.5201 196.783C48.8844 196.591 49.2835 196.472 49.694 196.436C50.1045 196.399 50.5183 196.444 50.911 196.569C51.3037 196.694 51.6675 196.897 51.9811 197.164C52.2947 197.431 52.5518 197.758 52.7373 198.126C52.9228 198.494 53.033 198.895 53.0614 199.306C53.0898 199.717 53.036 200.129 52.9029 200.519C52.7699 200.909 52.5603 201.268 52.2865 201.576C52.0128 201.884 51.6803 202.134 51.3085 202.312Z" fill="#FF637C"/>
<path d="M48.3797 214.516C47.0045 215.534 41.1732 215.978 41.1732 215.978C41.1732 215.978 43.3208 210.543 44.6843 209.525C45.0089 209.259 45.3842 209.062 45.7874 208.946C46.1906 208.829 46.6133 208.796 47.0298 208.847C47.4464 208.899 47.8481 209.034 48.2106 209.246C48.5731 209.457 48.8888 209.74 49.1386 210.077C49.3884 210.414 49.5671 210.798 49.6637 211.207C49.7604 211.615 49.7731 212.038 49.7011 212.451C49.629 212.865 49.4737 213.259 49.2445 213.61C49.0154 213.962 48.7172 214.263 48.368 214.496L48.3797 214.516Z" fill="#FF637C"/>
<path d="M38.8032 190.374C40.0292 191.567 45.7464 192.801 45.7464 192.801C45.7464 192.801 44.3449 187.126 43.1131 185.933C42.8238 185.638 42.4783 185.403 42.097 185.243C41.7156 185.083 41.306 185.001 40.8924 185.002C40.4789 185.003 40.0696 185.087 39.6889 185.248C39.3081 185.409 38.9635 185.645 38.6754 185.942C38.3873 186.238 38.1615 186.589 38.0113 186.974C37.8611 187.359 37.7896 187.771 37.801 188.184C37.8123 188.597 37.9064 189.003 38.0775 189.38C38.2486 189.756 38.4934 190.094 38.7974 190.374H38.8032Z" fill="#FF637C"/>
<path d="M35.5643 204.692C37.0916 205.461 42.917 204.932 42.917 204.932C42.917 204.932 39.8829 199.935 38.3526 199.166C37.9895 198.983 37.5939 198.874 37.1884 198.843C36.7829 198.813 36.3754 198.863 35.9892 198.99C35.603 199.118 35.2456 199.32 34.9375 199.585C34.6294 199.85 34.3766 200.173 34.1935 200.536C34.0104 200.899 33.9006 201.294 33.8704 201.699C33.8402 202.105 33.8902 202.512 34.0175 202.898C34.1448 203.284 34.3469 203.641 34.6123 203.949C34.8777 204.257 35.2012 204.509 35.5643 204.692V204.692Z" fill="#FF637C"/>
<path d="M34.3178 219.042C35.693 220.057 41.5243 220.504 41.5243 220.504C41.5243 220.504 39.3767 215.066 38.0132 214.048C37.3515 213.607 36.5454 213.437 35.7618 213.574C34.9782 213.71 34.2772 214.143 33.8038 214.781C33.3304 215.42 33.121 216.216 33.2188 217.005C33.3167 217.794 33.7144 218.515 34.3295 219.019L34.3178 219.042Z" fill="#FF637C"/>
<path d="M33.0626 226.796C33.0626 226.796 38.0688 225.802 39.403 224.478C40.7372 223.153 46.747 220.835 47.4141 222.489C48.0812 224.144 56.4259 229.775 50.7526 230.77C45.0793 231.764 37.4017 232.094 35.731 231.43C34.0604 230.767 33.0626 226.796 33.0626 226.796Z" fill="#A8A8A8"/>
<path opacity="0.2" d="M50.7526 230.153C45.0764 231.147 37.4017 231.477 35.731 230.816C34.4612 230.311 33.5776 227.893 33.2294 226.761L33.0626 226.796C33.0626 226.796 34.0633 230.77 35.731 231.43C37.3988 232.091 45.0764 231.764 50.7526 230.77C52.3882 230.477 52.8563 229.808 52.6808 228.957C52.5345 229.512 51.9698 229.936 50.7526 230.153Z" fill="black"/>
</g>
<defs>
<linearGradient id="paint0_linear" x1="150.213" y1="235.763" x2="150.213" y2="40.1379" gradientUnits="userSpaceOnUse">
<stop stop-color="#808080" stop-opacity="0.25"/>
<stop offset="0.54" stop-color="#808080" stop-opacity="0.12"/>
<stop offset="1" stop-color="#808080" stop-opacity="0.1"/>
</linearGradient>
<clipPath id="clip0">
<rect width="321" height="240" fill="white"/>
</clipPath>
</defs>
</svg>
